<?xml version="1.0" encoding="UTF-8"?>
<svg id="Calque_1" xmlns="http://www.w3.org/2000/svg" version="1.1" viewBox="0 0 128 128">
  <!-- Generator: Adobe Illustrator 29.8.2, SVG Export Plug-In . SVG Version: 2.1.1 Build 3)  -->
  <defs>
    <style>
      .st0 {
        fill: #891812;
      }

      .st1 {
        fill: #008d36;
      }

      .st2 {
        fill: #e20613;
      }
    </style>
  </defs>
  <path class="st2" d="M40.37,14.74c.04.22-.07.29-.19.44-.7.84-1.59,1.65-2.31,2.5-8.19,9.67-13.85,25.74-2.89,35.63,4.48,4.04,11.81,7.17,12.32,14.07.55,7.52-7.69,11.12-12.32,15.3-10.6,9.57-5.61,25.05,2.12,34.67.96,1.19,2.19,2.3,3.08,3.47.11.14.23.21.19.44-1.65-.67-2.83-1.31-4.33-2.02-.12-.06-.17-.11-.39-.19-.11-.04-.26-.14-.39-.19-.61-.44-1.05-.93-1.54-1.5-8.35-9.67-11.85-21.07-11.37-33.9.16-4.38,1-8.81,1.16-13.19.29-7.76-1.49-15.38-1.16-23.21.39-9.26,3.86-18.63,9.3-26.05.68-.93,1.84-2.54,2.64-3.28.07-.07.21-.25.23-.26.11-.05.21-.01.26-.03.3-.11.66-.13.87-.48,1.05-.42,2.28-1.46,3.48-1.87.41-.14.83-.18,1.24-.34Z"/>
  <path class="st2" d="M56.46,10.6c.01.24-.15.24-.29.34-5.88,3.98-11.95,11.13-10.38,18.75,1.34,6.49,9.1,12.49,13.26,17.56,8.45,10.27,10.87,21.74,5.03,34.11-1.59,3.36-3.98,6.33-6.42,9.08-6.56,7.39-16.04,13.83-10.39,25.12,1.18,2.36,3.7,5.38,5.62,7.19.81.76,2.57,1.76,3.09,2.55-.36-.11-.91.14-1.2.1-1.38-.2-2.82-.59-4.1-.87,0-.22-.13-.26-.26-.37-1.71-1.52-3.26-2.68-4.8-4.45s-4.14-5.3-4.94-7.49c-2.95-8.1-.75-13.3,5.27-18.95,2.85-2.67,5.89-4.99,8.58-7.89,9.99-10.78,9.99-24,0-34.77-7.09-7.65-18.24-12.57-14.42-25.2.55-1.82,1.46-3.48,2.44-5.08,1.75-2.88,3.95-5.53,6.65-7.55l1.09-1.12c.3-.07.68-.18.96-.29.26-.02.56.04.81,0,.15-.02.25-.16.39-.18.3-.05.75.14.91-.2,1.02-.1,1.98-.29,3.08-.39Z"/>
  <path class="st2" d="M66.19,10.31c.2-.03.91-.04,1.11,0,.17.03.27.19.29.19h1.73s.12.16.29.19c.35.07.91-.08,1.23,0,.09.02.19.44.55.29-.01.01,0,.17-.1.23-1.75,1.09-3.34,1.64-5.05,3.04-10.87,8.97-.84,19.79,4.17,28.57,4,7.01,7.14,14.69,7.43,22.8.42,11.68-2.92,20.06-8.82,29.9-3.04,5.08-8.36,11.96-7.54,18.15.58,4.39,3.94,7.88,7.63,10,.74.43,1.85.82,2.38,1.33-.14.15-.35.06-.51.1-.08.02-.06.17-.14.19-.36.09-.95-.09-1.31.02-.14.04-.2.23-.41.27-.74.15-2.48.09-3.32.1.04-.2-.11-.21-.24-.29-3.23-1.99-6.37-4.07-8.38-7.42-5.32-8.88,2.35-16.52,7.15-23.37,2.98-4.25,5.78-8.56,7.5-13.4,2.99-8.38,3.14-17.99,0-26.43-1.99-5.34-5.11-10.29-8.45-14.83-4.33-5.89-10.44-12.41-6.98-20.39,1.45-3.35,4.76-6.39,7.85-8.23.4-.24,1.54-.96,1.92-1.02Z"/>
  <path class="st0" d="M40.37,14.74c.14-.05.34-.16.57-.25.32-.12.57-.42.97-.33.01.11,0,.19-.05.29-.22.42-1.77,1.72-2.22,2.21-5.59,6.14-10.29,15.8-8.79,24.2,2.28,12.78,18.34,13.76,19.9,25.46,1.69,12.67-13.8,15.21-18.4,24.34-3.3,6.55-1.5,14.46,1.7,20.68,2,3.88,4.78,7.29,7.85,10.35.1.23-.33.14-.41.12-.3-.09-.86-.44-1.13-.55.04-.23-.08-.29-.19-.44-.89-1.17-2.13-2.28-3.08-3.47-7.73-9.62-12.72-25.1-2.12-34.67,4.63-4.18,12.87-7.78,12.32-15.3-.5-6.9-7.84-10.03-12.32-14.07-10.96-9.9-5.29-25.96,2.89-35.63.72-.86,1.61-1.66,2.31-2.5.12-.14.22-.22.19-.44Z"/>
  <path class="st0" d="M50.29,11.66l-1.09,1.12c-2.7,2.02-4.9,4.68-6.65,7.55-.97,1.6-1.89,3.26-2.44,5.08-3.82,12.64,7.33,17.56,14.42,25.2,9.99,10.78,9.99,24,0,34.77-2.69,2.9-5.72,5.22-8.58,7.89-6.03,5.65-8.22,10.85-5.27,18.95.8,2.19,3.36,5.68,4.94,7.49s3.09,2.93,4.8,4.45c.12.11.27.15.26.37-.38-.08-1.34-.29-1.63-.44-.4-.21-1.8-1.52-2.22-1.92-5.45-5.08-10.46-13.08-8.62-20.85,1.66-7.02,9.1-11.02,13.92-15.74,10.73-10.52,11.34-23.45.77-34.39-6.48-6.71-15.8-10.34-15.03-21.38.43-6.15,5.74-13.72,10.55-17.38.87-.66.9-.55,1.88-.77Z"/>
  <path class="st0" d="M56.46,10.6c.37-.03.67-.13,1.11-.1.14.01.28-.08.24.14-3.31,2.23-6.51,5.05-8.49,8.56-6.76,11.95,4.46,19.12,10.99,27.37,11.02,13.91,11.02,28.94,0,42.85-6.54,8.25-17.75,15.42-10.99,27.37,1.37,2.42,5.21,6.76,7.67,8.03.32.17.6.02.83.52.07.16-.05.13-.14.14-.37.05-1.51.09-1.69-.19-.51-.79-2.28-1.79-3.09-2.55-1.92-1.81-4.44-4.83-5.62-7.19-5.65-11.29,3.83-17.73,10.39-25.12,2.44-2.75,4.84-5.73,6.42-9.08,5.84-12.37,3.42-23.84-5.03-34.11-4.17-5.06-11.93-11.07-13.26-17.56-1.57-7.62,4.5-14.78,10.38-18.75.14-.09.3-.1.29-.34Z"/>
  <path class="st0" d="M34.31,17.73c-.8.75-1.96,2.36-2.64,3.28-5.45,7.42-8.91,16.79-9.3,26.05-.33,7.83,1.45,15.45,1.16,23.21-.16,4.38-1,8.81-1.16,13.19-.48,12.83,3.02,24.23,11.37,33.9.49.57.93,1.06,1.54,1.5-2.25-.91-3.26-2.32-4.66-4.25-6.19-8.49-9.51-18.7-9.88-29.22-.16-4.38.2-8.73.3-13.1.33-14.94-2.15-27.12,4.12-41.44,1.52-3.48,4.95-9.59,7.64-12.2.35-.34,1.04-.9,1.53-.93Z"/>
  <path class="st0" d="M71.39,10.99c.32-.28.7.06.92.09.11.02,1.08-.08.81.2-.09.09-1.94.84-2.3,1.02-2.33,1.24-4.24,2.98-6.02,4.86-3.65,3.84-1.97,10.94.35,15.05,2.09,3.71,4.58,7.29,6.64,11.08,8.88,16.34,9.45,31.31.8,47.93-3.15,6.06-10.29,15.17-9.78,22,.35,4.7,4.16,8.49,8.12,10.56.33.17,2.1.86,2.18.95.32.32-.8.12-.88.14-.18.04-.18.24-.25.25-.08.01-.48-.07-.51-.1-.53-.51-1.64-.91-2.38-1.33-3.69-2.12-7.05-5.6-7.63-10-.82-6.19,4.5-13.08,7.54-18.15,5.9-9.85,9.24-18.22,8.82-29.9-.29-8.11-3.43-15.79-7.43-22.8-5.01-8.78-15.04-19.61-4.17-28.57,1.71-1.41,3.3-1.96,5.05-3.04.1-.06.09-.22.1-.23Z"/>
  <path class="st0" d="M66.19,10.31c-.37.06-1.52.78-1.92,1.02-3.1,1.84-6.4,4.88-7.85,8.23-3.46,7.98,2.65,14.5,6.98,20.39,3.34,4.54,6.46,9.5,8.45,14.83,3.14,8.44,2.99,18.06,0,26.43-1.73,4.84-4.52,9.14-7.5,13.4-4.8,6.84-12.47,14.49-7.15,23.37,2.01,3.35,5.15,5.43,8.38,7.42.13.08.28.08.24.29-.03,0-.19.12-.43.1-1.46-.09-6.07-3.82-7.13-5.01-10.63-11.91,1.94-20.8,8.02-30.5,9.66-15.4,9.41-30.41-.71-45.48-3.56-5.3-10.62-12.53-11.39-18.85-.82-6.7,4.48-11.94,9.68-15.14.66-.4,1.58-.79,2.35-.5Z"/>
  <path class="st0" d="M117.85,56.7c1.76-.19,3.75,2.35,4.32,3.81.31.79.21,1.35.33,2.08.13.8.3,1.68.39,2.5.18,1.71.23,7.23,0,8.87-.16,1.13-.21,2.34-.4,3.46-.25,1.52-2.14,4.23-3.66,4.72-2.69.87-3.66-2.93-4.02-4.84-.78-4.25-1.01-15.05.95-18.83.4-.78,1.15-1.68,2.08-1.78ZM118.9,62.67c-.41.05-.79.4-1.02.72-1.55,2.15-1.61,10.26.08,12.31,1.36,1.65,2.65-.41,3.15-1.66.96-2.4,1.04-5.46.38-7.94-.28-1.05-1.21-3.59-2.6-3.43Z"/>
  <path class="st0" d="M16.2,33.81c.09.19.08.25,0,.43-.49,1.35-1.25,2.75-1.76,4.12-5.56,14.89-6.42,33.22-3.04,48.72,1.18,5.41,3.04,10.73,5.27,15.77-1.1-.87-2.36-3.96-2.86-5.37-5.68-15.73-6.63-33.75-2.67-50.01,1.07-4.41,2.43-10.1,5.06-13.67Z"/>
  <path class="st0" d="M53.38,10.99c-.16.34-.62.15-.91.2-.15.02-.25.16-.39.18-.26.04-.55-.02-.81,0,.88-.34,1.18-.29,2.12-.39Z"/>
  <path class="st0" d="M35.65,16.96c-.2.35-.57.37-.87.48.04-.43.64-.39.87-.48Z"/>
  <path class="st0" d="M18.7,105.37c-.36-.01-.36-.31-.48-.48.36,0,.37.34.48.48Z"/>
  <path class="st0" d="M17.84,104.31c-.33,0-.29-.22-.39-.39.33,0,.29.24.39.39Z"/>
  <path class="st0" d="M18.99,105.85s.27-.04.19.19c-.13-.11-.1-.09-.19-.19-.03-.03-.31.06-.19-.39.16.22.15.31.19.39Z"/>
  <path class="st0" d="M20.53,107.59c-.05-.05-.29.11-.19-.39.09.1.26.13.19.39Z"/>
  <path class="st0" d="M36.04,119.24c-.22,0-.45.09-.39-.19.21.09.27.14.39.19Z"/>
  <path class="st0" d="M16.87,103.06c.35.3.21.26.39.58-.25.04-.28-.38-.39-.58Z"/>
  <path class="st0" d="M20.82,28.13s.07-.06.1-.1l-.1.1Z"/>
  <path class="st2" d="M118.9,62.67c1.39-.16,2.31,2.38,2.6,3.43.66,2.49.58,5.55-.38,7.94-.5,1.25-1.79,3.31-3.15,1.66-1.69-2.05-1.63-10.16-.08-12.31.23-.32.61-.68,1.02-.72Z"/>
  <path class="st2" d="M13.12,66.52c.13-12.55,1.92-23.65,7.13-34.5-.36.33-.68.79-1.12.88-.57.11-1.28-.36-2.02-.37-.3.43-.6.87-.91,1.29.09.19.08.25,0,.43-.49,1.35-1.25,2.75-1.76,4.12-5.56,14.89-6.42,33.22-3.04,48.72,1.18,5.41,3.04,10.73,5.27,15.77.07.05.12.13.19.19.35.3.21.26.39.58.06.12.14.2.19.29.33,0,.29.24.39.39.13.2.25.39.39.58.36,0,.37.34.48.48.03.04.07.06.1.1.16.22.15.31.19.39,0,.01.27-.04.19.19.34.3.87.81,1.16,1.16.09.1.26.13.19.39.78.65,1.32,1.59,2.12,2.26.21.18.48.43.77.43-.41-1.04-.86-1.64-1.39-2.61-7.11-13.11-9.07-26.36-8.92-41.16Z"/>
  <path class="st0" d="M25.15,111.68c-6.81-10.16-9.93-22.34-10.78-34.48-1.05-14.93.09-31.49,6.49-45.25-.06.03-.12.06-.18.09-.28.16-.52.46-.78.72-4.94,10.62-6.65,21.49-6.77,33.75-.16,14.8,1.8,28.05,8.92,41.16.52.97.98,1.57,1.39,2.61.04.11,1.33,1.43,1.44,1.49.13.07.35.12.29-.09Z"/>
  <path class="st1" d="M72.34,6.41c.15.08,2.81-.33,3.62-.29,6.19.31,12.49,7.12,7.75,11.99-1.32,1.36-3.13,2.17-4.36,3.71-1.08,1.34-1.68,3.43-1.89,5.04,2.89-1.65,4.2-4.27,7.99-4.4,1.64-.06,3.65,1.02,5.23.52,1.88-.6,3.08-3.19,5.57-3.97,3.37-1.05,6.38,1.38,9.6.27-2.48-3.45-6.34-3.36-10.15-4.36-5.8-1.53-7.29-8.3-13.59-11.05-1.98-.86-8.86-2.66-10.47-.93-.7.75.04,3.12.7,3.48Z"/>
  <path class="st0" d="M106.21,21.99c-.4-.16-1.12.13-1.64.04-1.33-.22-2.88-.81-4.12-.93-.58-.05-1.07.59-1.63-.03l-4.49,4.32c-1.66.77-3.83-.98-5.3-.51-1.77.58-2.91,2.25-4.29,3.5-.44.4-1.25.57-1.5.94-.19.28-.85,4.19-.91,4.86-1.38,16.82,9.91,27.76,5,47.37-2.99,11.92-15.64,23.66-10.31,36.4,1.12,2.69,3.88,6.54,6.68,3.34,1.64-1.87.52-3.5.26-5.26-.44-3.02.91-5.16,2.17-7.74.11-.16.27-.34.42-.55,6.35-6.97,12.74-13.22,17.13-22.09,7.04-14.24,9.98-32.23,7.99-47.65-.43-3.35-2.76-14.97-5.44-16.03Z"/>
  <path class="st2" d="M103.52,21.12c-.42-.17-1.16.12-1.7.02-1.39-.24-2.99-.86-4.29-.99-.6-.06-1.1.59-1.69-.05l-4.61,4.33c-1.71.76-3.99-1.04-5.5-.58-1.83.57-2.99,2.25-4.41,3.51-.45.4-1.29.56-1.55.94-.2.28-.83,4.24-.88,4.92-1.23,17.05,10.61,28.29,5.75,48.13-2.96,12.06-15.95,23.82-10.27,36.82,1.2,2.74,4.1,6.68,6.97,3.47,1.68-1.88.5-3.54.21-5.34-.5-3.07.88-5.22,2.16-7.83.11-.16.27-.34.43-.56,6.51-7,13.07-13.26,17.51-22.21,7.14-14.36,9.98-32.59,7.73-48.26-.49-3.4-3.04-15.22-5.84-16.33Z"/>
</svg>