<svg version="1.1" xmlns="http://www.w3.org/2000/svg" viewBox="0 0 2548.727004915224 1648.9828527514046" width="5097.454009830448" height="3297.965705502809">
  <!-- svg-source:excalidraw -->
  
  <defs>
    <style class="style-fonts">
      @font-face {
        font-family: "Virgil";
        src: url("https://excalidraw.com/Virgil.woff2");
      }
      @font-face {
        font-family: "Cascadia";
        src: url("https://excalidraw.com/Cascadia.woff2");
      }
    </style>
    
  </defs>
  <rect x="0" y="0" width="2548.727004915224" height="1648.9828527514046" fill="#ffffff"></rect><g stroke-linecap="round" transform="translate(134.60013769032435 348.387742358987) rotate(0 445.9373348916889 240.01921260346694)"><path d="M0 0 C0 0, 0 0, 0 0 M0 0 C0 0, 0 0, 0 0 M0.13 12.04 C2.85 8.91, 5.57 5.79, 10.63 -0.03 M0.13 12.04 C3.27 8.43, 6.41 4.82, 10.63 -0.03 M0.27 24.08 C5.19 18.42, 10.11 12.76, 21.26 -0.07 M0.27 24.08 C7.82 15.39, 15.37 6.71, 21.26 -0.07 M-0.26 36.88 C10.36 24.66, 20.99 12.44, 31.89 -0.1 M-0.26 36.88 C7.1 28.42, 14.45 19.96, 31.89 -0.1 M-0.12 48.92 C14.53 32.06, 29.19 15.2, 42.52 -0.14 M-0.12 48.92 C12.11 34.84, 24.35 20.77, 42.52 -0.14 M0.01 60.96 C20.55 37.33, 41.09 13.7, 53.15 -0.17 M0.01 60.96 C14.37 44.44, 28.72 27.93, 53.15 -0.17 M0.14 73 C20.58 49.49, 41.02 25.97, 63.78 -0.21 M0.14 73 C18.25 52.16, 36.37 31.33, 63.78 -0.21 M0.28 85.04 C22.08 59.95, 43.89 34.87, 74.41 -0.24 M0.28 85.04 C24.19 57.53, 48.1 30.03, 74.41 -0.24 M-0.25 97.84 C31.36 61.48, 62.96 25.12, 85.04 -0.28 M-0.25 97.84 C23.45 70.58, 47.14 43.33, 85.04 -0.28 M-0.11 109.88 C25.61 80.28, 51.34 50.69, 95.67 -0.31 M-0.11 109.88 C24.94 81.05, 50 52.23, 95.67 -0.31 M0.02 121.92 C41.87 73.77, 83.73 25.62, 106.3 -0.34 M0.02 121.92 C23.18 95.27, 46.35 68.62, 106.3 -0.34 M0.15 133.96 C43.53 84.06, 86.91 34.16, 116.27 0.38 M0.15 133.96 C27.97 101.96, 55.79 69.96, 116.27 0.38 M0.29 146 C37.18 103.56, 74.07 61.12, 126.91 0.34 M0.29 146 C48.8 90.19, 97.31 34.39, 126.91 0.34 M-0.24 158.8 C30.24 123.73, 60.72 88.67, 137.54 0.31 M-0.24 158.8 C52.84 97.73, 105.92 36.67, 137.54 0.31 M-0.1 170.84 C38.76 126.13, 77.63 81.42, 148.17 0.27 M-0.1 170.84 C41.11 123.43, 82.32 76.02, 148.17 0.27 M0.03 182.88 C43.25 133.15, 86.48 83.43, 158.8 0.24 M0.03 182.88 C48.32 127.33, 96.61 71.77, 158.8 0.24 M0.16 194.92 C51.53 135.83, 102.9 76.74, 169.43 0.2 M0.16 194.92 C56.62 129.97, 113.09 65.01, 169.43 0.2 M0.3 206.96 C60.64 137.54, 120.98 68.13, 180.06 0.17 M0.3 206.96 C68.27 128.76, 136.25 50.56, 180.06 0.17 M-0.23 219.75 C59.18 151.42, 118.58 83.08, 190.69 0.13 M-0.23 219.75 C39.44 174.13, 79.1 128.5, 190.69 0.13 M-0.09 231.8 C54.08 169.47, 108.26 107.15, 201.32 0.1 M-0.09 231.8 C53.44 170.22, 106.97 108.64, 201.32 0.1 M0.04 243.84 C80.44 151.35, 160.83 58.86, 211.95 0.06 M0.04 243.84 C60.39 174.41, 120.73 104.99, 211.95 0.06 M0.17 255.88 C62.03 184.72, 123.89 113.56, 222.58 0.03 M0.17 255.88 C45.12 204.17, 90.08 152.45, 222.58 0.03 M0.3 267.92 C70.37 187.31, 140.44 106.71, 233.21 0 M0.3 267.92 C87.77 167.3, 175.23 66.69, 233.21 0 M-0.22 280.71 C52.86 219.66, 105.93 158.6, 243.84 -0.04 M-0.22 280.71 C72.71 196.82, 145.64 112.92, 243.84 -0.04 M-0.08 292.75 C67.78 214.69, 135.64 136.62, 254.47 -0.07 M-0.08 292.75 C55.26 229.08, 110.61 165.41, 254.47 -0.07 M0.05 304.8 C76.86 216.43, 153.68 128.06, 265.1 -0.11 M0.05 304.8 C64.75 230.37, 129.44 155.94, 265.1 -0.11 M0.18 316.84 C101.07 200.77, 201.97 84.71, 275.73 -0.14 M0.18 316.84 C103.36 198.14, 206.54 79.44, 275.73 -0.14 M0.31 328.88 C99.4 214.89, 198.49 100.9, 286.36 -0.18 M0.31 328.88 C58.3 262.17, 116.28 195.47, 286.36 -0.18 M-0.21 341.67 C85.24 243.38, 170.69 145.08, 296.99 -0.21 M-0.21 341.67 C100 226.4, 200.21 111.12, 296.99 -0.21 M-0.08 353.71 C118.98 216.75, 238.04 79.79, 307.62 -0.25 M-0.08 353.71 C97.15 241.86, 194.38 130.02, 307.62 -0.25 M0.06 365.75 C69.12 286.31, 138.19 206.86, 318.25 -0.28 M0.06 365.75 C70.92 284.24, 141.77 202.73, 318.25 -0.28 M0.19 377.79 C85.49 279.67, 170.79 181.55, 328.88 -0.31 M0.19 377.79 C66.54 301.47, 132.88 225.15, 328.88 -0.31 M0.32 389.84 C115.52 257.32, 230.71 124.81, 339.51 -0.35 M0.32 389.84 C93.49 282.66, 186.66 175.48, 339.51 -0.35 M-0.2 402.63 C125.93 257.54, 252.06 112.44, 349.48 0.37 M-0.2 402.63 C88.87 300.17, 177.95 197.7, 349.48 0.37 M-0.07 414.67 C121.85 274.42, 243.77 134.18, 360.11 0.34 M-0.07 414.67 C130.82 264.11, 261.71 113.54, 360.11 0.34 M0.07 426.71 C124.43 283.66, 248.78 140.6, 370.74 0.3 M0.07 426.71 C128.19 279.32, 256.32 131.93, 370.74 0.3 M0.2 438.75 C112.79 309.24, 225.38 179.72, 381.37 0.27 M0.2 438.75 C109.07 313.51, 217.94 188.27, 381.37 0.27 M-0.32 451.55 C147.71 281.26, 295.74 110.97, 392 0.23 M-0.32 451.55 C126.09 306.13, 252.5 160.71, 392 0.23 M-0.19 463.59 C157.08 282.67, 314.36 101.75, 402.63 0.2 M-0.19 463.59 C106.45 340.92, 213.09 218.24, 402.63 0.2 M-0.06 475.63 C135.54 319.65, 271.13 163.67, 413.26 0.16 M-0.06 475.63 C127.47 328.93, 254.99 182.23, 413.26 0.16 M4.01 483.14 C88.93 385.46, 173.84 287.78, 423.89 0.13 M4.01 483.14 C109.25 362.08, 214.5 241.01, 423.89 0.13 M14.64 483.11 C173.36 300.52, 332.08 117.94, 434.52 0.1 M14.64 483.11 C100.87 383.92, 187.09 284.73, 434.52 0.1 M25.27 483.07 C112.54 382.69, 199.8 282.3, 445.15 0.06 M25.27 483.07 C117.59 376.88, 209.9 270.68, 445.15 0.06 M35.9 483.04 C189.55 306.29, 343.19 129.54, 455.78 0.03 M35.9 483.04 C199.62 294.7, 363.34 106.37, 455.78 0.03 M46.53 483.01 C165.22 346.47, 283.91 209.93, 466.41 -0.01 M46.53 483.01 C162.18 349.97, 277.83 216.94, 466.41 -0.01 M56.51 483.73 C173.83 348.76, 291.15 213.8, 477.04 -0.04 M56.51 483.73 C147.37 379.2, 238.24 274.67, 477.04 -0.04 M67.14 483.69 C151.52 386.62, 235.91 289.54, 487.67 -0.08 M67.14 483.69 C213.05 315.84, 358.95 148, 487.67 -0.08 M77.77 483.66 C226.13 312.98, 374.5 142.31, 498.3 -0.11 M77.77 483.66 C209.9 331.65, 342.04 179.65, 498.3 -0.11 M88.4 483.62 C228.92 321.98, 369.43 160.33, 508.93 -0.15 M88.4 483.62 C210.62 343.03, 332.84 202.43, 508.93 -0.15 M99.03 483.59 C255.23 303.9, 411.44 124.2, 519.56 -0.18 M99.03 483.59 C221.52 342.67, 344.02 201.76, 519.56 -0.18 M109.66 483.55 C258.48 312.36, 407.3 141.16, 530.19 -0.22 M109.66 483.55 C273.32 295.28, 436.98 107.01, 530.19 -0.22 M120.29 483.52 C274.79 305.78, 429.3 128.05, 540.82 -0.25 M120.29 483.52 C217.36 371.85, 314.43 260.19, 540.82 -0.25 M130.92 483.48 C269.32 324.28, 407.71 165.07, 551.45 -0.28 M130.92 483.48 C236.86 361.62, 342.79 239.75, 551.45 -0.28 M141.55 483.45 C276.79 327.87, 412.04 172.29, 562.08 -0.32 M141.55 483.45 C306.78 293.38, 472.01 103.3, 562.08 -0.32 M152.18 483.42 C247.83 373.38, 343.48 263.35, 572.71 -0.35 M152.18 483.42 C284.52 331.18, 416.85 178.94, 572.71 -0.35 M162.81 483.38 C273.42 356.14, 384.02 228.9, 582.69 0.37 M162.81 483.38 C294.72 331.63, 426.64 179.88, 582.69 0.37 M173.44 483.35 C263.72 379.49, 353.99 275.64, 593.32 0.33 M173.44 483.35 C316.17 319.15, 458.91 154.96, 593.32 0.33 M184.07 483.31 C339.71 304.27, 495.35 125.23, 603.95 0.3 M184.07 483.31 C313.33 334.62, 442.58 185.93, 603.95 0.3 M194.7 483.28 C344.31 311.17, 493.92 139.06, 614.58 0.26 M194.7 483.28 C327.65 330.33, 460.61 177.38, 614.58 0.26 M205.33 483.24 C318.53 353.02, 431.73 222.8, 625.21 0.23 M205.33 483.24 C358.03 307.58, 510.73 131.92, 625.21 0.23 M215.96 483.21 C347.94 331.38, 479.92 179.55, 635.84 0.19 M215.96 483.21 C367.28 309.14, 518.59 135.07, 635.84 0.19 M226.59 483.17 C367.2 321.43, 507.8 159.68, 646.47 0.16 M226.59 483.17 C330.72 363.38, 434.86 243.59, 646.47 0.16 M237.22 483.14 C342.38 362.16, 447.55 241.19, 657.1 0.13 M237.22 483.14 C326.75 380.14, 416.29 277.15, 657.1 0.13 M247.85 483.11 C411.44 294.91, 575.04 106.72, 667.73 0.09 M247.85 483.11 C333.4 384.69, 418.95 286.28, 667.73 0.09 M258.48 483.07 C394.74 326.32, 531.01 169.56, 678.36 0.06 M258.48 483.07 C402.87 316.96, 547.27 150.86, 678.36 0.06 M269.11 483.04 C355.35 383.82, 441.6 284.61, 688.99 0.02 M269.11 483.04 C374.22 362.12, 479.33 241.21, 688.99 0.02 M279.74 483 C445.52 292.29, 611.3 101.58, 699.62 -0.01 M279.74 483 C383.7 363.41, 487.66 243.81, 699.62 -0.01 M289.71 483.72 C374.75 385.9, 459.79 288.07, 710.25 -0.05 M289.71 483.72 C409.06 346.43, 528.4 209.14, 710.25 -0.05 M300.34 483.69 C434.1 329.81, 567.86 175.94, 720.88 -0.08 M300.34 483.69 C445.91 316.23, 591.48 148.77, 720.88 -0.08 M310.97 483.65 C457.52 315.07, 604.07 146.49, 731.51 -0.12 M310.97 483.65 C469.39 301.41, 627.81 119.17, 731.51 -0.12 M321.6 483.62 C426.48 362.97, 531.37 242.32, 742.14 -0.15 M321.6 483.62 C442.68 344.33, 563.76 205.05, 742.14 -0.15 M332.23 483.58 C442.03 357.28, 551.82 230.98, 752.77 -0.19 M332.23 483.58 C449.24 348.98, 566.25 214.38, 752.77 -0.19 M342.86 483.55 C486.86 317.9, 630.85 152.26, 763.4 -0.22 M342.86 483.55 C447.08 363.67, 551.29 243.78, 763.4 -0.22 M353.49 483.51 C481.89 335.82, 610.28 188.12, 774.03 -0.25 M353.49 483.51 C485.57 331.58, 617.65 179.64, 774.03 -0.25 M364.12 483.48 C468.89 362.97, 573.65 242.45, 784.66 -0.29 M364.12 483.48 C459.73 373.5, 555.33 263.52, 784.66 -0.29 M374.75 483.45 C498.78 340.77, 622.81 198.09, 795.29 -0.32 M374.75 483.45 C495.23 344.85, 615.71 206.26, 795.29 -0.32 M385.38 483.41 C477.9 376.98, 570.42 270.56, 805.92 -0.36 M385.38 483.41 C534.48 311.9, 683.58 140.38, 805.92 -0.36 M396.01 483.38 C560.65 293.98, 725.29 104.59, 815.89 0.36 M396.01 483.38 C553.18 302.58, 710.35 121.78, 815.89 0.36 M406.64 483.34 C492.28 384.83, 577.91 286.33, 826.52 0.33 M406.64 483.34 C567.89 297.85, 729.14 112.36, 826.52 0.33 M417.28 483.31 C504.39 383.1, 591.5 282.88, 837.15 0.29 M417.28 483.31 C515.09 370.79, 612.9 258.27, 837.15 0.29 M427.91 483.27 C574.15 315.04, 720.4 146.8, 847.78 0.26 M427.91 483.27 C594.6 291.52, 761.28 99.76, 847.78 0.26 M438.54 483.24 C564.53 338.3, 690.53 193.35, 858.41 0.22 M438.54 483.24 C562.13 341.06, 685.73 198.88, 858.41 0.22 M449.17 483.2 C574.65 338.86, 700.13 194.51, 869.04 0.19 M449.17 483.2 C575.62 337.74, 702.07 192.27, 869.04 0.19 M459.8 483.17 C576.28 349.17, 692.77 215.17, 879.67 0.16 M459.8 483.17 C571.93 354.18, 684.06 225.18, 879.67 0.16 M470.43 483.14 C596.3 338.33, 722.18 193.53, 890.3 0.12 M470.43 483.14 C609.34 323.33, 748.26 163.53, 890.3 0.12 M481.06 483.1 C603.94 341.73, 726.83 200.37, 897 4.62 M481.06 483.1 C579.27 370.12, 677.49 257.13, 897 4.62 M491.69 483.07 C610.8 346.04, 729.92 209.01, 897.13 16.66 M491.69 483.07 C632.34 321.27, 772.99 159.47, 897.13 16.66 M502.32 483.03 C643.91 320.15, 785.5 157.27, 897.26 28.7 M502.32 483.03 C645.77 318.01, 789.22 152.99, 897.26 28.7 M512.95 483 C598.26 384.85, 683.58 286.7, 897.4 40.74 M512.95 483 C642.41 334.06, 771.88 185.12, 897.4 40.74 M522.92 483.72 C604.97 389.33, 687.02 294.95, 896.87 53.53 M522.92 483.72 C667.46 317.44, 812.01 151.16, 896.87 53.53 M533.55 483.68 C651.21 348.33, 768.87 212.98, 897.01 65.57 M533.55 483.68 C647.82 352.23, 762.1 220.77, 897.01 65.57 M544.18 483.65 C642.8 370.2, 741.42 256.75, 897.14 77.61 M544.18 483.65 C657.42 353.38, 770.67 223.11, 897.14 77.61 M554.81 483.61 C636.03 390.19, 717.24 296.76, 897.27 89.66 M554.81 483.61 C630.29 396.79, 705.77 309.96, 897.27 89.66 M565.44 483.58 C660.92 373.75, 756.4 263.91, 896.75 102.45 M565.44 483.58 C683.88 347.34, 802.31 211.09, 896.75 102.45 M576.07 483.55 C671.87 373.34, 767.67 263.14, 896.88 114.49 M576.07 483.55 C647.24 401.67, 718.41 319.8, 896.88 114.49 M586.7 483.51 C662.37 396.46, 738.04 309.41, 897.02 126.53 M586.7 483.51 C699.76 353.45, 812.82 223.39, 897.02 126.53 M597.33 483.48 C670.17 399.68, 743.01 315.89, 897.15 138.57 M597.33 483.48 C661.02 410.21, 724.71 336.94, 897.15 138.57 M607.96 483.44 C692.73 385.93, 777.49 288.42, 897.28 150.61 M607.96 483.44 C719.6 355.01, 831.25 226.58, 897.28 150.61 M618.59 483.41 C702.99 386.31, 787.4 289.22, 896.76 163.41 M618.59 483.41 C705.48 383.45, 792.38 283.49, 896.76 163.41 M629.22 483.37 C690.93 412.38, 752.64 341.39, 896.89 175.45 M629.22 483.37 C721.07 377.72, 812.91 272.06, 896.89 175.45 M639.85 483.34 C720.03 391.1, 800.21 298.87, 897.03 187.49 M639.85 483.34 C734.62 374.32, 829.39 265.3, 897.03 187.49 M650.48 483.3 C699.82 426.55, 749.15 369.79, 897.16 199.53 M650.48 483.3 C732.79 388.62, 815.09 293.94, 897.16 199.53 M661.11 483.27 C755.14 375.1, 849.17 266.94, 897.29 211.57 M661.11 483.27 C721.14 414.21, 781.17 345.16, 897.29 211.57 M671.74 483.23 C760.22 381.45, 848.71 279.66, 896.77 224.37 M671.74 483.23 C746.37 397.39, 820.99 311.54, 896.77 224.37 M682.37 483.2 C744.81 411.37, 807.26 339.54, 896.9 236.41 M682.37 483.2 C761.6 392.06, 840.82 300.92, 896.9 236.41 M693 483.17 C764.51 400.9, 836.02 318.64, 897.04 248.45 M693 483.17 C751.71 415.63, 810.41 348.1, 897.04 248.45 M703.63 483.13 C745.75 434.68, 787.88 386.22, 897.17 260.49 M703.63 483.13 C769.51 407.35, 835.38 331.57, 897.17 260.49 M714.26 483.1 C761.95 428.24, 809.64 373.37, 897.3 272.53 M714.26 483.1 C756.22 434.83, 798.18 386.56, 897.3 272.53 M724.89 483.06 C759.84 442.86, 794.79 402.66, 896.78 285.33 M724.89 483.06 C779.98 419.7, 835.06 356.33, 896.78 285.33 M735.52 483.03 C777.58 434.64, 819.64 386.26, 896.91 297.37 M735.52 483.03 C793.62 416.19, 851.72 349.36, 896.91 297.37 M746.15 482.99 C802.28 418.43, 858.41 353.86, 897.05 309.41 M746.15 482.99 C789.79 432.8, 833.42 382.6, 897.05 309.41 M756.13 483.71 C803.56 429.15, 850.99 374.59, 897.18 321.45 M756.13 483.71 C806.96 425.24, 857.79 366.76, 897.18 321.45 M766.76 483.68 C798.87 446.74, 830.98 409.8, 897.31 333.49 M766.76 483.68 C812.8 430.71, 858.85 377.74, 897.31 333.49 M777.39 483.64 C803.84 453.21, 830.3 422.77, 896.79 346.29 M777.39 483.64 C811.7 444.17, 846.01 404.7, 896.79 346.29 M788.02 483.61 C814.81 452.78, 841.61 421.96, 896.92 358.33 M788.02 483.61 C814.56 453.08, 841.1 422.54, 896.92 358.33 M798.65 483.58 C828.08 449.72, 857.51 415.86, 897.06 370.37 M798.65 483.58 C825.66 452.5, 852.67 421.43, 897.06 370.37 M809.28 483.54 C843.69 443.95, 878.11 404.36, 897.19 382.41 M809.28 483.54 C828.76 461.13, 848.24 438.72, 897.19 382.41 M819.91 483.51 C843.1 456.82, 866.3 430.13, 897.32 394.45 M819.91 483.51 C837.85 462.86, 855.8 442.22, 897.32 394.45 M830.54 483.47 C857.03 452.99, 883.53 422.51, 896.8 407.25 M830.54 483.47 C855.2 455.1, 879.86 426.73, 896.8 407.25 M841.17 483.44 C852.47 470.43, 863.77 457.43, 896.93 419.29 M841.17 483.44 C860.46 461.24, 879.75 439.05, 896.93 419.29 M851.8 483.4 C869.33 463.23, 886.86 443.06, 897.06 431.33 M851.8 483.4 C865.73 467.37, 879.67 451.33, 897.06 431.33 M862.43 483.37 C874.11 469.93, 885.79 456.49, 897.2 443.37 M862.43 483.37 C875.65 468.16, 888.86 452.96, 897.2 443.37 M873.06 483.33 C882 473.05, 890.94 462.76, 897.33 455.41 M873.06 483.33 C879.56 475.86, 886.05 468.38, 897.33 455.41 M883.69 483.3 C887.31 479.14, 890.93 474.97, 896.81 468.21 M883.69 483.3 C888.6 477.65, 893.51 472, 896.81 468.21" stroke="#ffc9c9" stroke-width="1" fill="none"></path><path d="M0 0 C266.13 0, 532.25 0, 891.87 0 M891.87 0 C891.87 168.12, 891.87 336.23, 891.87 480.04 M891.87 480.04 C576.58 480.04, 261.28 480.04, 0 480.04 M0 480.04 C0 355.88, 0 231.72, 0 0" stroke="#1e1e1e" stroke-width="2.5" fill="none" stroke-dasharray="1.5 8"></path></g><g stroke-linecap="round" transform="translate(10 909.7441521638193) rotate(0 567.9143117885333 243.95395379368847)"><path d="M0 0 C0 0, 0 0, 0 0 M0 0 C0 0, 0 0, 0 0 M0.13 12.04 C2.86 8.91, 5.58 5.78, 10.63 -0.03 M0.13 12.04 C2.44 9.38, 4.76 6.72, 10.63 -0.03 M0.27 24.08 C7.56 15.69, 14.85 7.3, 21.26 -0.07 M0.27 24.08 C5.08 18.54, 9.89 13.01, 21.26 -0.07 M-0.26 36.88 C8.65 26.63, 17.55 16.39, 31.89 -0.1 M-0.26 36.88 C12.05 22.72, 24.35 8.57, 31.89 -0.1 M-0.12 48.92 C12.97 33.86, 26.06 18.8, 42.52 -0.14 M-0.12 48.92 C13.59 33.14, 27.31 17.36, 42.52 -0.14 M0.01 60.96 C11.58 47.65, 23.16 34.33, 53.15 -0.17 M0.01 60.96 C17.83 40.46, 35.65 19.96, 53.15 -0.17 M0.14 73 C22.16 47.67, 44.18 22.34, 63.78 -0.21 M0.14 73 C24.18 45.35, 48.21 17.71, 63.78 -0.21 M0.28 85.04 C23.91 57.85, 47.55 30.66, 74.41 -0.24 M0.28 85.04 C28.59 52.47, 56.9 19.9, 74.41 -0.24 M-0.25 97.84 C24.34 69.55, 48.94 41.26, 85.04 -0.28 M-0.25 97.84 C23.38 70.66, 47 43.48, 85.04 -0.28 M-0.11 109.88 C25.35 80.59, 50.81 51.3, 95.67 -0.31 M-0.11 109.88 C28.89 76.51, 57.89 43.15, 95.67 -0.31 M0.02 121.92 C37.89 78.36, 75.76 34.79, 106.3 -0.34 M0.02 121.92 C24.02 94.31, 48.02 66.7, 106.3 -0.34 M0.15 133.96 C34.15 94.85, 68.15 55.74, 116.27 0.38 M0.15 133.96 C29.76 99.9, 59.36 65.84, 116.27 0.38 M0.29 146 C34.56 106.57, 68.83 67.15, 126.91 0.34 M0.29 146 C32.81 108.58, 65.34 71.16, 126.91 0.34 M-0.24 158.8 C38.64 114.07, 77.52 69.34, 137.54 0.31 M-0.24 158.8 C37.23 115.7, 74.69 72.6, 137.54 0.31 M-0.1 170.84 C51.89 111.02, 103.89 51.2, 148.17 0.27 M-0.1 170.84 C48.75 114.64, 97.6 58.44, 148.17 0.27 M0.03 182.88 C42.11 134.47, 84.19 86.07, 158.8 0.24 M0.03 182.88 C57.78 116.44, 115.54 50, 158.8 0.24 M0.16 194.92 C36.38 153.25, 72.61 111.58, 169.43 0.2 M0.16 194.92 C39 150.24, 77.84 105.56, 169.43 0.2 M0.3 206.96 C57.93 140.65, 115.57 74.35, 180.06 0.17 M0.3 206.96 C39.33 162.05, 78.37 117.14, 180.06 0.17 M-0.23 219.75 C52.59 158.99, 105.41 98.23, 190.69 0.13 M-0.23 219.75 C51.17 160.62, 102.58 101.49, 190.69 0.13 M-0.09 231.8 C55.66 167.66, 111.42 103.52, 201.32 0.1 M-0.09 231.8 C59.38 163.38, 118.86 94.96, 201.32 0.1 M0.04 243.84 C53.7 182.1, 107.37 120.37, 211.95 0.06 M0.04 243.84 C82.22 149.29, 164.41 54.75, 211.95 0.06 M0.17 255.88 C46.84 202.19, 93.51 148.5, 222.58 0.03 M0.17 255.88 C75.33 169.42, 150.49 82.96, 222.58 0.03 M0.3 267.92 C60.09 199.15, 119.87 130.37, 233.21 0 M0.3 267.92 C58.71 200.73, 117.12 133.53, 233.21 0 M-0.22 280.71 C83.83 184.03, 167.87 87.35, 243.84 -0.04 M-0.22 280.71 C63.58 207.32, 127.38 133.93, 243.84 -0.04 M-0.08 292.75 C75.87 205.38, 151.83 118, 254.47 -0.07 M-0.08 292.75 C89.06 190.2, 178.21 87.65, 254.47 -0.07 M0.05 304.8 C93.75 197, 187.45 89.21, 265.1 -0.11 M0.05 304.8 C68.6 225.94, 137.15 147.08, 265.1 -0.11 M0.18 316.84 C107.15 193.79, 214.11 70.73, 275.73 -0.14 M0.18 316.84 C84.16 220.22, 168.15 123.61, 275.73 -0.14 M0.31 328.88 C74.36 243.7, 148.41 158.51, 286.36 -0.18 M0.31 328.88 C85.86 230.47, 171.4 132.06, 286.36 -0.18 M-0.21 341.67 C69.45 261.54, 139.11 181.41, 296.99 -0.21 M-0.21 341.67 C106.71 218.68, 213.63 95.69, 296.99 -0.21 M-0.08 353.71 C101.58 236.77, 203.24 119.82, 307.62 -0.25 M-0.08 353.71 C70.29 272.76, 140.66 191.81, 307.62 -0.25 M0.06 365.75 C109.41 239.96, 218.76 114.16, 318.25 -0.28 M0.06 365.75 C91.35 260.74, 182.64 155.72, 318.25 -0.28 M0.19 377.79 C127.24 231.64, 254.29 85.49, 328.88 -0.31 M0.19 377.79 C88.98 275.65, 177.78 173.51, 328.88 -0.31 M0.32 389.84 C109.27 264.51, 218.22 139.18, 339.51 -0.35 M0.32 389.84 C96.86 278.78, 193.39 167.73, 339.51 -0.35 M-0.2 402.63 C102.67 284.3, 205.53 165.97, 349.48 0.37 M-0.2 402.63 C112.58 272.89, 225.37 143.15, 349.48 0.37 M-0.07 414.67 C133.41 261.13, 266.88 107.59, 360.11 0.34 M-0.07 414.67 C99.99 299.57, 200.05 184.47, 360.11 0.34 M0.07 426.71 C99.63 312.18, 199.18 197.66, 370.74 0.3 M0.07 426.71 C97.03 315.17, 193.99 203.63, 370.74 0.3 M0.2 438.75 C150.3 266.08, 300.41 93.4, 381.37 0.27 M0.2 438.75 C83.28 343.18, 166.36 247.61, 381.37 0.27 M-0.32 451.55 C146.23 282.96, 292.78 114.37, 392 0.23 M-0.32 451.55 C93.66 343.44, 187.64 235.33, 392 0.23 M-0.19 463.59 C117.17 328.58, 234.53 193.57, 402.63 0.2 M-0.19 463.59 C154.14 286.05, 308.48 108.51, 402.63 0.2 M-0.06 475.63 C91.38 370.44, 182.82 265.26, 413.26 0.16 M-0.06 475.63 C159.18 292.45, 318.43 109.26, 413.26 0.16 M0.08 487.67 C111.17 359.87, 222.26 232.08, 423.89 0.13 M0.08 487.67 C117.88 352.16, 235.67 216.65, 423.89 0.13 M6.12 492.92 C122.75 358.75, 239.39 224.57, 434.52 0.1 M6.12 492.92 C136.42 343.02, 266.72 193.13, 434.52 0.1 M16.75 492.89 C146.75 343.33, 276.76 193.77, 445.15 0.06 M16.75 492.89 C159.65 328.49, 302.56 164.1, 445.15 0.06 M27.38 492.85 C171.18 327.42, 314.99 161.99, 455.78 0.03 M27.38 492.85 C189.38 306.49, 351.38 120.13, 455.78 0.03 M38.01 492.82 C171.31 339.47, 304.61 186.12, 466.41 -0.01 M38.01 492.82 C127.01 390.43, 216.01 288.05, 466.41 -0.01 M48.64 492.78 C163.87 360.22, 279.11 227.65, 477.04 -0.04 M48.64 492.78 C162.5 361.8, 276.36 230.82, 477.04 -0.04 M59.27 492.75 C221.8 305.77, 384.34 118.79, 487.67 -0.08 M59.27 492.75 C181.27 352.4, 303.27 212.05, 487.67 -0.08 M69.24 493.47 C188.58 356.19, 307.91 218.91, 498.3 -0.11 M69.24 493.47 C155.96 393.71, 242.68 293.94, 498.3 -0.11 M79.87 493.43 C208.95 344.94, 338.03 196.45, 508.93 -0.15 M79.87 493.43 C241 308.08, 402.13 122.72, 508.93 -0.15 M90.5 493.4 C183.81 386.06, 277.12 278.72, 519.56 -0.18 M90.5 493.4 C218.71 345.91, 346.93 198.41, 519.56 -0.18 M101.13 493.36 C215.51 361.78, 329.9 230.2, 530.19 -0.22 M101.13 493.36 C194.42 386.04, 287.71 278.72, 530.19 -0.22 M111.76 493.33 C236.11 350.28, 360.46 207.23, 540.82 -0.25 M111.76 493.33 C216.49 372.85, 321.23 252.37, 540.82 -0.25 M122.39 493.3 C279.5 312.57, 436.6 131.84, 551.45 -0.28 M122.39 493.3 C283.06 308.47, 443.73 123.64, 551.45 -0.28 M133.02 493.26 C281.65 322.28, 430.28 151.3, 562.08 -0.32 M133.02 493.26 C219.99 393.21, 306.97 293.16, 562.08 -0.32 M143.65 493.23 C267.01 351.32, 390.37 209.41, 572.71 -0.35 M143.65 493.23 C288.32 326.8, 432.99 160.38, 572.71 -0.35 M154.28 493.19 C320.05 302.5, 485.81 111.81, 582.69 0.37 M154.28 493.19 C289.65 337.46, 425.03 181.73, 582.69 0.37 M164.91 493.16 C257.9 386.19, 350.88 279.22, 593.32 0.33 M164.91 493.16 C260.31 383.41, 355.72 273.66, 593.32 0.33 M175.54 493.12 C286.72 365.23, 397.89 237.33, 603.95 0.3 M175.54 493.12 C262.01 393.65, 348.49 294.17, 603.95 0.3 M186.17 493.09 C331.67 325.72, 477.16 158.34, 614.58 0.26 M186.17 493.09 C303.85 357.72, 421.52 222.34, 614.58 0.26 M196.8 493.05 C351.33 315.29, 505.85 137.53, 625.21 0.23 M196.8 493.05 C305.93 367.52, 415.05 241.98, 625.21 0.23 M207.43 493.02 C352.44 326.2, 497.45 159.39, 635.84 0.19 M207.43 493.02 C363.11 313.93, 518.79 134.84, 635.84 0.19 M218.06 492.99 C361.79 327.65, 505.52 162.31, 646.47 0.16 M218.06 492.99 C366.14 322.64, 514.22 152.29, 646.47 0.16 M228.69 492.95 C355.23 347.38, 481.77 201.81, 657.1 0.13 M228.69 492.95 C351.05 352.19, 473.41 211.43, 657.1 0.13 M239.32 492.92 C400.97 306.96, 562.62 121.01, 667.73 0.09 M239.32 492.92 C377.36 334.12, 515.39 175.33, 667.73 0.09 M249.95 492.88 C417.21 300.47, 584.48 108.06, 678.36 0.06 M249.95 492.88 C363.36 362.42, 476.77 231.95, 678.36 0.06 M260.58 492.85 C401.12 331.17, 541.67 169.49, 688.99 0.02 M260.58 492.85 C392.76 340.79, 524.94 188.74, 688.99 0.02 M271.21 492.81 C357.85 393.14, 444.49 293.48, 699.62 -0.01 M271.21 492.81 C378.59 369.29, 485.97 245.76, 699.62 -0.01 M281.84 492.78 C443.78 306.48, 605.73 120.19, 710.25 -0.05 M281.84 492.78 C369.82 391.58, 457.79 290.37, 710.25 -0.05 M292.47 492.74 C381.51 390.32, 470.55 287.89, 720.88 -0.08 M292.47 492.74 C386.66 384.39, 480.85 276.04, 720.88 -0.08 M302.45 493.46 C459.45 312.85, 616.46 132.24, 731.51 -0.12 M302.45 493.46 C469.75 301.01, 637.04 108.55, 731.51 -0.12 M313.08 493.43 C434.36 353.91, 555.65 214.39, 742.14 -0.15 M313.08 493.43 C431.25 357.48, 549.43 221.54, 742.14 -0.15 M323.71 493.4 C443.41 355.69, 563.11 217.99, 752.77 -0.19 M323.71 493.4 C416.41 386.75, 509.12 280.1, 752.77 -0.19 M334.34 493.36 C420.43 394.32, 506.53 295.27, 763.4 -0.22 M334.34 493.36 C483.2 322.11, 632.07 150.86, 763.4 -0.22 M344.97 493.33 C496.34 319.19, 647.71 145.05, 774.03 -0.25 M344.97 493.33 C479.78 338.24, 614.6 183.15, 774.03 -0.25 M355.6 493.29 C498.96 328.37, 642.33 163.44, 784.66 -0.29 M355.6 493.29 C480.29 349.84, 604.99 206.4, 784.66 -0.29 M366.23 493.26 C525.6 309.92, 684.97 126.58, 795.29 -0.32 M366.23 493.26 C491.21 349.48, 616.19 205.71, 795.29 -0.32 M376.86 493.22 C528.69 318.55, 680.53 143.89, 805.92 -0.36 M376.86 493.22 C543.84 301.13, 710.82 109.04, 805.92 -0.36 M387.49 493.19 C544.88 312.12, 702.28 131.06, 815.89 0.36 M387.49 493.19 C486.37 379.43, 585.26 265.68, 815.89 0.36 M398.12 493.15 C539.1 330.97, 680.09 168.78, 826.52 0.33 M398.12 493.15 C506.04 369.01, 613.96 244.86, 826.52 0.33 M408.75 493.12 C546.52 334.62, 684.3 176.13, 837.15 0.29 M408.75 493.12 C577.07 299.49, 745.39 105.85, 837.15 0.29 M419.38 493.08 C516.82 380.99, 614.25 268.9, 847.78 0.26 M419.38 493.08 C554.19 338, 689.01 182.91, 847.78 0.26 M430.01 493.05 C542.86 363.23, 655.71 233.4, 858.41 0.22 M430.01 493.05 C564.6 338.22, 699.2 183.38, 858.41 0.22 M440.64 493.02 C532.75 387.05, 624.86 281.09, 869.04 0.19 M440.64 493.02 C586.27 325.48, 731.9 157.95, 869.04 0.19 M451.27 492.98 C610.07 310.3, 768.87 127.62, 879.67 0.16 M451.27 492.98 C583.15 341.27, 715.03 189.56, 879.67 0.16 M461.9 492.95 C614.55 317.34, 767.19 141.74, 890.3 0.12 M461.9 492.95 C597.55 336.89, 733.21 180.84, 890.3 0.12 M472.53 492.91 C588.02 360.05, 703.52 227.18, 900.93 0.09 M472.53 492.91 C628.33 313.68, 784.13 134.45, 900.93 0.09 M483.16 492.88 C617.82 337.97, 752.48 183.05, 911.56 0.05 M483.16 492.88 C637.55 315.27, 791.94 137.67, 911.56 0.05 M493.79 492.84 C637.25 327.81, 780.71 162.78, 922.19 0.02 M493.79 492.84 C600.04 370.62, 706.29 248.39, 922.19 0.02 M504.42 492.81 C611.72 369.38, 719.02 245.94, 932.82 -0.02 M504.42 492.81 C595.77 387.72, 687.12 282.63, 932.82 -0.02 M515.05 492.77 C681.96 300.76, 848.88 108.74, 943.45 -0.05 M515.05 492.77 C602.33 392.36, 689.62 291.95, 943.45 -0.05 M525.68 492.74 C664.71 332.8, 803.74 172.86, 954.08 -0.09 M525.68 492.74 C673.01 323.26, 820.33 153.78, 954.08 -0.09 M535.65 493.46 C623.78 392.08, 711.91 290.69, 964.71 -0.12 M535.65 493.46 C643.06 369.9, 750.47 246.34, 964.71 -0.12 M546.28 493.43 C715.69 298.54, 885.1 103.66, 975.34 -0.15 M546.28 493.43 C652.52 371.21, 758.75 249, 975.34 -0.15 M556.91 493.39 C643.67 393.58, 730.43 293.78, 985.97 -0.19 M556.91 493.39 C678.68 353.32, 800.44 213.24, 985.97 -0.19 M567.54 493.36 C704.01 336.36, 840.49 179.37, 996.6 -0.22 M567.54 493.36 C716.06 322.5, 864.58 151.65, 996.6 -0.22 M578.17 493.32 C727.69 321.32, 877.21 149.32, 1007.23 -0.26 M578.17 493.32 C739.8 307.38, 901.44 121.45, 1007.23 -0.26 M588.8 493.29 C695.81 370.19, 802.82 247.09, 1017.86 -0.29 M588.8 493.29 C712.33 351.18, 835.87 209.07, 1017.86 -0.29 M599.43 493.25 C711.45 364.39, 823.47 235.53, 1028.49 -0.33 M599.43 493.25 C718.81 355.92, 838.19 218.59, 1028.49 -0.33 M610.06 493.22 C756.97 324.21, 903.89 155.21, 1039.12 -0.36 M610.06 493.22 C716.39 370.9, 822.72 248.59, 1039.12 -0.36 M620.69 493.18 C751.49 342.72, 882.28 192.26, 1049.1 0.36 M620.69 493.18 C755.24 338.4, 889.79 183.62, 1049.1 0.36 M631.32 493.15 C738.04 370.38, 844.77 247.61, 1059.73 0.32 M631.32 493.15 C728.71 381.11, 826.11 269.08, 1059.73 0.32 M641.95 493.11 C768.3 347.77, 894.65 202.42, 1070.36 0.29 M641.95 493.11 C764.68 351.93, 887.41 210.74, 1070.36 0.29 M652.58 493.08 C746.83 384.66, 841.08 276.24, 1080.99 0.26 M652.58 493.08 C804.47 318.35, 956.36 143.63, 1080.99 0.26 M663.21 493.05 C831.19 299.81, 999.17 106.57, 1091.62 0.22 M663.21 493.05 C823.57 308.57, 983.93 124.1, 1091.62 0.22 M673.84 493.01 C761.21 392.5, 848.59 291.99, 1102.25 0.19 M673.84 493.01 C838.36 303.75, 1002.89 114.49, 1102.25 0.19 M684.47 492.98 C773.36 390.73, 862.24 288.48, 1112.88 0.15 M684.47 492.98 C784.27 378.17, 884.07 263.37, 1112.88 0.15 M695.1 492.94 C844.32 321.29, 993.53 149.64, 1123.51 0.12 M695.1 492.94 C865.18 297.29, 1035.25 101.64, 1123.51 0.12 M705.73 492.91 C834.29 345.02, 962.85 197.13, 1134.14 0.08 M705.73 492.91 C831.84 347.84, 957.95 202.77, 1134.14 0.08 M716.36 492.87 C843.22 346.95, 970.07 201.02, 1140.83 4.58 M716.36 492.87 C844.2 345.81, 972.04 198.75, 1140.83 4.58 M726.99 492.84 C841.84 360.72, 956.69 228.6, 1140.97 16.62 M726.99 492.84 C837.55 365.66, 948.1 238.48, 1140.97 16.62 M737.62 492.8 C858.58 353.66, 979.54 214.51, 1141.1 28.66 M737.62 492.8 C871.11 339.24, 1004.6 185.68, 1141.1 28.66 M748.25 492.77 C864.36 359.21, 980.46 225.65, 1141.23 40.7 M748.25 492.77 C841.05 386.02, 933.84 279.27, 1141.23 40.7 M758.88 492.74 C871.06 363.69, 983.24 234.65, 1140.71 53.49 M758.88 492.74 C891.34 340.36, 1023.8 187.98, 1140.71 53.49 M768.86 493.46 C902.22 340.04, 1035.57 186.63, 1140.84 65.54 M768.86 493.46 C903.97 338.03, 1039.08 182.6, 1140.84 65.54 M779.49 493.42 C859.71 401.14, 939.93 308.85, 1140.98 77.58 M779.49 493.42 C901.22 353.38, 1022.96 213.34, 1140.98 77.58 M790.12 493.39 C867.13 404.8, 944.14 316.21, 1141.11 89.62 M790.12 493.39 C925.79 337.32, 1061.45 181.25, 1141.11 89.62 M800.75 493.35 C910.97 366.55, 1021.2 239.75, 1141.24 101.66 M800.75 493.35 C907.8 370.2, 1014.86 247.05, 1141.24 101.66 M811.38 493.32 C903.4 387.46, 995.42 281.6, 1140.72 114.45 M811.38 493.32 C917.04 371.76, 1022.71 250.21, 1140.72 114.45 M822.01 493.28 C897.62 406.3, 973.24 319.31, 1140.85 126.49 M822.01 493.28 C892.28 412.44, 962.55 331.6, 1140.85 126.49 M832.64 493.25 C921.5 391.03, 1010.36 288.8, 1140.99 138.54 M832.64 493.25 C942.86 366.45, 1053.09 239.65, 1140.99 138.54 M843.27 493.21 C932.21 390.9, 1021.15 288.58, 1141.12 150.58 M843.27 493.21 C909.34 417.2, 975.42 341.19, 1141.12 150.58 M853.9 493.18 C923.97 412.57, 994.04 331.96, 1141.25 162.62 M853.9 493.18 C958.59 372.74, 1063.28 252.31, 1141.25 162.62 M864.53 493.15 C931.63 415.95, 998.73 338.76, 1140.73 175.41 M864.53 493.15 C923.2 425.65, 981.87 358.16, 1140.73 175.41 M875.16 493.11 C953 403.56, 1030.85 314.01, 1140.86 187.45 M875.16 493.11 C977.69 375.16, 1080.22 257.22, 1140.86 187.45 M885.79 493.08 C963.22 404, 1040.66 314.92, 1141 199.49 M885.79 493.08 C965.51 401.37, 1045.23 309.66, 1141 199.49 M896.42 493.04 C952.84 428.14, 1009.25 363.24, 1141.13 211.54 M896.42 493.04 C980.38 396.45, 1064.35 299.86, 1141.13 211.54 M907.05 493.01 C980.07 409.01, 1053.09 325.01, 1141.26 223.58 M907.05 493.01 C993.36 393.72, 1079.66 294.44, 1141.26 223.58 M917.68 492.97 C962.29 441.65, 1006.9 390.33, 1140.74 236.37 M917.68 492.97 C992.1 407.36, 1066.53 321.74, 1140.74 236.37 M928.31 492.94 C1012.93 395.59, 1097.56 298.24, 1140.87 248.41 M928.31 492.94 C982.33 430.79, 1036.36 368.64, 1140.87 248.41 M938.94 492.9 C1018.39 401.5, 1097.85 310.1, 1141 260.45 M938.94 492.9 C1005.95 415.82, 1072.96 338.73, 1141 260.45 M949.57 492.87 C1005.33 428.73, 1061.09 364.58, 1141.14 272.49 M949.57 492.87 C1020.31 411.49, 1091.06 330.1, 1141.14 272.49 M960.2 492.83 C1023.66 419.83, 1087.12 346.83, 1141.27 284.53 M960.2 492.83 C1012.3 432.9, 1064.4 372.97, 1141.27 284.53 M970.83 492.8 C1007.81 450.26, 1044.79 407.71, 1140.75 297.33 M970.83 492.8 C1028.67 426.27, 1086.5 359.73, 1140.75 297.33 M981.46 492.77 C1023 444.98, 1064.53 397.2, 1140.88 309.37 M981.46 492.77 C1018 450.72, 1054.55 408.68, 1140.88 309.37 M992.09 492.73 C1022.37 457.9, 1052.65 423.07, 1141.01 321.41 M992.09 492.73 C1039.81 437.83, 1087.54 382.93, 1141.01 321.41 M1002.06 493.45 C1038.31 451.76, 1074.55 410.06, 1141.15 333.45 M1002.06 493.45 C1052.13 435.85, 1102.2 378.25, 1141.15 333.45 M1012.69 493.42 C1060.28 438.67, 1107.87 383.93, 1140.62 346.25 M1012.69 493.42 C1049.69 450.86, 1086.68 408.3, 1140.62 346.25 M1023.32 493.38 C1062.81 447.96, 1102.3 402.53, 1140.76 358.29 M1023.32 493.38 C1065.65 444.7, 1107.97 396.01, 1140.76 358.29 M1033.95 493.35 C1060.26 463.09, 1086.56 432.83, 1140.89 370.33 M1033.95 493.35 C1071.67 449.96, 1109.38 406.58, 1140.89 370.33 M1044.58 493.31 C1065.95 468.73, 1087.32 444.15, 1141.02 382.37 M1044.58 493.31 C1072.3 461.43, 1100.01 429.55, 1141.02 382.37 M1055.21 493.28 C1076.36 468.95, 1097.51 444.62, 1141.16 394.41 M1055.21 493.28 C1076.16 469.18, 1097.11 445.09, 1141.16 394.41 M1065.84 493.24 C1088.21 467.51, 1110.58 441.78, 1140.63 407.21 M1065.84 493.24 C1086.37 469.63, 1106.9 446.01, 1140.63 407.21 M1076.47 493.21 C1101.64 464.26, 1126.81 435.3, 1140.77 419.25 M1076.47 493.21 C1090.72 476.82, 1104.97 460.43, 1140.77 419.25 M1087.1 493.18 C1103.22 474.63, 1119.35 456.09, 1140.9 431.29 M1087.1 493.18 C1099.57 478.83, 1112.04 464.49, 1140.9 431.29 M1097.73 493.14 C1115.05 473.22, 1132.36 453.3, 1141.03 443.33 M1097.73 493.14 C1113.85 474.6, 1129.97 456.06, 1141.03 443.33 M1108.36 493.11 C1115.01 485.46, 1121.66 477.81, 1141.17 455.37 M1108.36 493.11 C1119.71 480.05, 1131.06 467, 1141.17 455.37 M1118.99 493.07 C1127.38 483.43, 1135.77 473.78, 1140.64 468.17 M1118.99 493.07 C1125.66 485.4, 1132.33 477.74, 1140.64 468.17 M1129.62 493.04 C1133.37 488.73, 1137.12 484.42, 1140.78 480.21 M1129.62 493.04 C1133.86 488.16, 1138.1 483.28, 1140.78 480.21" stroke="#ffec99" stroke-width="1" fill="none"></path><path d="M0 0 C412.27 0, 824.54 0, 1135.83 0 M1135.83 0 C1135.83 121.98, 1135.83 243.96, 1135.83 487.91 M1135.83 487.91 C822.2 487.91, 508.57 487.91, 0 487.91 M0 487.91 C0 331.52, 0 175.14, 0 0" stroke="#1e1e1e" stroke-width="2.5" fill="none" stroke-dasharray="1.5 8"></path></g><g stroke-linecap="round" transform="translate(1809.4883043276388 327.4024560111434) rotate(0 364.61935029379265 222.9686674458444)"><path d="M0 0 C0 0, 0 0, 0 0 M0 0 C0 0, 0 0, 0 0 M0.13 12.04 C4.3 7.25, 8.46 2.46, 10.63 -0.03 M0.13 12.04 C3.06 8.67, 5.99 5.3, 10.63 -0.03 M0.27 24.08 C6.12 17.35, 11.98 10.61, 21.26 -0.07 M0.27 24.08 C8.11 15.06, 15.96 6.03, 21.26 -0.07 M-0.26 36.88 C10.29 24.75, 20.83 12.62, 31.89 -0.1 M-0.26 36.88 C8.96 26.27, 18.18 15.67, 31.89 -0.1 M-0.12 48.92 C15.52 30.93, 31.15 12.94, 42.52 -0.14 M-0.12 48.92 C15.65 30.77, 31.43 12.62, 42.52 -0.14 M0.01 60.96 C20.72 37.14, 41.42 13.32, 53.15 -0.17 M0.01 60.96 C19.89 38.09, 39.76 15.23, 53.15 -0.17 M0.14 73 C25.44 43.9, 50.73 14.81, 63.78 -0.21 M0.14 73 C16.9 53.72, 33.67 34.43, 63.78 -0.21 M0.28 85.04 C24.84 56.78, 49.4 28.53, 74.41 -0.24 M0.28 85.04 C24.92 56.69, 49.57 28.34, 74.41 -0.24 M-0.25 97.84 C25.97 67.67, 52.2 37.51, 85.04 -0.28 M-0.25 97.84 C18.6 76.15, 37.45 54.47, 85.04 -0.28 M-0.11 109.88 C33.52 71.18, 67.16 32.49, 95.67 -0.31 M-0.11 109.88 C21.9 84.55, 43.92 59.23, 95.67 -0.31 M0.02 121.92 C24.63 93.61, 49.24 65.29, 106.3 -0.34 M0.02 121.92 C35.78 80.78, 71.54 39.64, 106.3 -0.34 M0.15 133.96 C46.1 81.1, 92.05 28.24, 116.27 0.38 M0.15 133.96 C36.23 92.46, 72.3 50.96, 116.27 0.38 M0.29 146 C26 116.42, 51.71 86.84, 126.91 0.34 M0.29 146 C42.08 97.92, 83.87 49.84, 126.91 0.34 M-0.24 158.8 C35.58 117.6, 71.39 76.4, 137.54 0.31 M-0.24 158.8 C40.53 111.89, 81.31 64.99, 137.54 0.31 M-0.1 170.84 C37.51 127.56, 75.13 84.29, 148.17 0.27 M-0.1 170.84 C36.76 128.43, 73.62 86.03, 148.17 0.27 M0.03 182.88 C45.64 130.4, 91.26 77.93, 158.8 0.24 M0.03 182.88 C45 131.14, 89.97 79.41, 158.8 0.24 M0.16 194.92 C53.24 133.86, 106.32 72.8, 169.43 0.2 M0.16 194.92 C62.02 123.76, 123.87 52.61, 169.43 0.2 M0.3 206.96 C48.77 151.19, 97.25 95.43, 180.06 0.17 M0.3 206.96 C44.65 155.94, 89 104.91, 180.06 0.17 M-0.23 219.75 C59.21 151.38, 118.64 83.01, 190.69 0.13 M-0.23 219.75 C53.31 158.16, 106.86 96.57, 190.69 0.13 M-0.09 231.8 C69.86 151.32, 139.82 70.84, 201.32 0.1 M-0.09 231.8 C67.8 153.69, 135.7 75.58, 201.32 0.1 M0.04 243.84 C58.09 177.06, 116.14 110.28, 211.95 0.06 M0.04 243.84 C46.7 190.16, 93.36 136.48, 211.95 0.06 M0.17 255.88 C68.91 176.8, 137.65 97.72, 222.58 0.03 M0.17 255.88 C85.05 158.23, 169.94 60.58, 222.58 0.03 M0.3 267.92 C53.15 207.13, 105.99 146.34, 233.21 0 M0.3 267.92 C78.95 177.45, 157.6 86.97, 233.21 0 M-0.22 280.71 C71.06 198.72, 142.33 116.73, 243.84 -0.04 M-0.22 280.71 C93.55 172.85, 187.31 64.99, 243.84 -0.04 M-0.08 292.75 C74.78 206.64, 149.64 120.52, 254.47 -0.07 M-0.08 292.75 C54.02 230.52, 108.12 168.28, 254.47 -0.07 M0.05 304.8 C74.76 218.85, 149.46 132.91, 265.1 -0.11 M0.05 304.8 C59.71 236.16, 119.38 167.52, 265.1 -0.11 M0.18 316.84 C109.81 190.72, 219.44 64.61, 275.73 -0.14 M0.18 316.84 C96.88 205.59, 193.59 94.35, 275.73 -0.14 M0.31 328.88 C61.13 258.92, 121.94 188.96, 286.36 -0.18 M0.31 328.88 C103.69 209.96, 207.06 91.05, 286.36 -0.18 M-0.21 341.67 C106.48 218.94, 213.18 96.2, 296.99 -0.21 M-0.21 341.67 C84.69 244.01, 169.58 146.36, 296.99 -0.21 M-0.08 353.71 C82 259.29, 164.08 164.88, 307.62 -0.25 M-0.08 353.71 C100.39 238.14, 200.86 122.56, 307.62 -0.25 M0.06 365.75 C126.28 220.55, 252.51 75.34, 318.25 -0.28 M0.06 365.75 C87.86 264.75, 175.66 163.75, 318.25 -0.28 M0.19 377.79 C123.53 235.91, 246.86 94.03, 328.88 -0.31 M0.19 377.79 C75.99 290.6, 151.78 203.41, 328.88 -0.31 M0.32 389.84 C77.87 300.63, 155.42 211.42, 339.51 -0.35 M0.32 389.84 C70.76 308.81, 141.2 227.78, 339.51 -0.35 M-0.2 402.63 C110.8 274.94, 221.81 147.24, 349.48 0.37 M-0.2 402.63 C90.82 297.93, 181.83 193.23, 349.48 0.37 M-0.07 414.67 C133.51 261.01, 267.09 107.34, 360.11 0.34 M-0.07 414.67 C105.57 293.15, 211.2 171.64, 360.11 0.34 M0.07 426.71 C82.05 332.41, 164.03 238.1, 370.74 0.3 M0.07 426.71 C140.47 265.2, 280.87 103.69, 370.74 0.3 M0.2 438.75 C90.9 334.42, 181.6 230.08, 381.37 0.27 M0.2 438.75 C141.91 275.74, 283.61 112.72, 381.37 0.27 M2.3 448.53 C104.66 330.79, 207.01 213.04, 392 0.23 M2.3 448.53 C90.31 347.29, 178.31 246.05, 392 0.23 M12.93 448.5 C107.56 339.64, 202.19 230.78, 402.63 0.2 M12.93 448.5 C94.25 354.95, 175.57 261.4, 402.63 0.2 M23.56 448.46 C166.42 284.12, 309.28 119.78, 413.26 0.16 M23.56 448.46 C108.44 350.83, 193.31 253.19, 413.26 0.16 M34.19 448.43 C149.9 315.32, 265.61 182.22, 423.89 0.13 M34.19 448.43 C188.56 270.85, 342.92 93.28, 423.89 0.13 M44.82 448.39 C164.1 311.17, 283.39 173.96, 434.52 0.1 M44.82 448.39 C141.3 337.41, 237.77 226.43, 434.52 0.1 M55.45 448.36 C176.27 309.37, 297.09 170.38, 445.15 0.06 M55.45 448.36 C153.95 335.05, 252.45 221.74, 445.15 0.06 M66.08 448.32 C145.08 357.45, 224.08 266.57, 455.78 0.03 M66.08 448.32 C215.96 275.91, 365.83 103.5, 455.78 0.03 M76.71 448.29 C189.91 318.07, 303.11 187.85, 466.41 -0.01 M76.71 448.29 C202.92 303.1, 329.13 157.92, 466.41 -0.01 M87.34 448.25 C175.6 346.73, 263.85 245.21, 477.04 -0.04 M87.34 448.25 C233.44 280.19, 379.54 112.12, 477.04 -0.04 M97.97 448.22 C193.43 338.41, 288.89 228.59, 487.67 -0.08 M97.97 448.22 C207.56 322.15, 317.15 196.09, 487.67 -0.08 M108.6 448.19 C223.86 315.59, 339.12 183, 498.3 -0.11 M108.6 448.19 C241.52 295.28, 374.43 142.38, 498.3 -0.11 M119.23 448.15 C227.81 323.25, 336.38 198.35, 508.93 -0.15 M119.23 448.15 C206.21 348.1, 293.18 248.05, 508.93 -0.15 M129.86 448.12 C276.97 278.89, 424.08 109.66, 519.56 -0.18 M129.86 448.12 C239.86 321.58, 349.85 195.05, 519.56 -0.18 M140.49 448.08 C255.47 315.81, 370.45 183.55, 530.19 -0.22 M140.49 448.08 C286.51 280.11, 432.53 112.14, 530.19 -0.22 M151.12 448.05 C301.92 274.58, 452.71 101.11, 540.82 -0.25 M151.12 448.05 C296.93 280.31, 442.74 112.58, 540.82 -0.25 M161.75 448.01 C277.21 315.19, 392.67 182.37, 551.45 -0.28 M161.75 448.01 C312.66 274.42, 463.56 100.82, 551.45 -0.28 M172.38 447.98 C284.57 318.92, 396.76 189.87, 562.08 -0.32 M172.38 447.98 C277.23 327.37, 382.08 206.75, 562.08 -0.32 M183.01 447.94 C293.21 321.18, 403.4 194.42, 572.71 -0.35 M183.01 447.94 C276.1 340.86, 369.18 233.78, 572.71 -0.35 M193.64 447.91 C346.33 272.26, 499.02 96.62, 582.69 0.37 M193.64 447.91 C347.61 270.79, 501.57 93.68, 582.69 0.37 M204.27 447.88 C341.77 289.7, 479.27 131.53, 593.32 0.33 M204.27 447.88 C334.29 298.31, 464.3 148.75, 593.32 0.33 M214.9 447.84 C316.58 330.88, 418.25 213.92, 603.95 0.3 M214.9 447.84 C315.93 331.62, 416.96 215.4, 603.95 0.3 M224.88 448.56 C304.99 356.4, 385.11 264.24, 614.58 0.26 M224.88 448.56 C304.53 356.93, 384.18 265.3, 614.58 0.26 M235.51 448.53 C314.83 357.28, 394.15 266.03, 625.21 0.23 M235.51 448.53 C369.09 294.86, 502.67 141.19, 625.21 0.23 M246.14 448.49 C337.73 343.13, 429.31 237.77, 635.84 0.19 M246.14 448.49 C326.89 355.6, 407.64 262.71, 635.84 0.19 M256.77 448.46 C403.52 279.64, 550.28 110.81, 646.47 0.16 M256.77 448.46 C336.1 357.19, 415.44 265.93, 646.47 0.16 M267.4 448.42 C359.35 342.65, 451.3 236.87, 657.1 0.13 M267.4 448.42 C355.84 346.68, 444.28 244.95, 657.1 0.13 M278.03 448.39 C389.63 320, 501.24 191.62, 667.73 0.09 M278.03 448.39 C425 279.31, 571.98 110.24, 667.73 0.09 M288.66 448.35 C405.97 313.4, 523.28 178.45, 678.36 0.06 M288.66 448.35 C434.58 280.49, 580.51 112.62, 678.36 0.06 M299.29 448.32 C411.26 319.51, 523.23 190.71, 688.99 0.02 M299.29 448.32 C406.51 324.97, 513.74 201.62, 688.99 0.02 M309.92 448.28 C435.14 304.23, 560.37 160.17, 699.62 -0.01 M309.92 448.28 C421.83 319.54, 533.74 190.8, 699.62 -0.01 M320.55 448.25 C430.52 321.74, 540.49 195.23, 710.25 -0.05 M320.55 448.25 C431.92 320.14, 543.28 192.02, 710.25 -0.05 M331.18 448.22 C442.79 319.82, 554.41 191.42, 720.88 -0.08 M331.18 448.22 C420.46 345.51, 509.74 242.81, 720.88 -0.08 M341.81 448.18 C428.13 348.88, 514.46 249.57, 730.2 1.39 M341.81 448.18 C448.15 325.85, 554.5 203.51, 730.2 1.39 M352.44 448.15 C497.63 281.13, 642.81 114.11, 730.33 13.43 M352.44 448.15 C500.1 278.28, 647.77 108.41, 730.33 13.43 M363.07 448.11 C439.19 360.54, 515.32 272.97, 730.46 25.48 M363.07 448.11 C466.15 329.53, 569.23 210.95, 730.46 25.48 M373.7 448.08 C481.17 324.45, 588.64 200.82, 730.6 37.52 M373.7 448.08 C512.63 288.25, 651.57 128.42, 730.6 37.52 M384.33 448.04 C517.74 294.58, 651.14 141.11, 730.73 49.56 M384.33 448.04 C461.91 358.79, 539.5 269.54, 730.73 49.56 M394.96 448.01 C502.91 323.83, 610.86 199.64, 730.21 62.35 M394.96 448.01 C518.45 305.95, 641.94 163.89, 730.21 62.35 M405.59 447.97 C487.62 353.61, 569.65 259.25, 730.34 74.39 M405.59 447.97 C534.99 299.12, 664.39 150.26, 730.34 74.39 M416.22 447.94 C488.54 364.75, 560.85 281.56, 730.47 86.43 M416.22 447.94 C509.93 340.14, 603.64 232.34, 730.47 86.43 M426.85 447.91 C534.56 323.99, 642.28 200.08, 730.61 98.47 M426.85 447.91 C540.77 316.85, 654.7 185.8, 730.61 98.47 M437.48 447.87 C498.24 377.97, 559.01 308.07, 730.74 110.52 M437.48 447.87 C518.31 354.89, 599.14 261.9, 730.74 110.52 M448.11 447.84 C556.61 323.02, 665.1 198.21, 730.22 123.31 M448.11 447.84 C533.12 350.04, 618.13 252.25, 730.22 123.31 M458.08 448.56 C548.85 344.14, 639.62 239.72, 730.35 135.35 M458.08 448.56 C519.07 378.4, 580.06 308.24, 730.35 135.35 M468.71 448.52 C543.17 362.87, 617.62 277.22, 730.48 147.39 M468.71 448.52 C521.45 387.86, 574.19 327.19, 730.48 147.39 M479.34 448.49 C551.52 365.45, 623.7 282.42, 730.61 159.43 M479.34 448.49 C578.15 334.82, 676.96 221.15, 730.61 159.43 M489.97 448.45 C572.9 353.06, 655.83 257.66, 730.75 171.47 M489.97 448.45 C556.46 371.97, 622.95 295.49, 730.75 171.47 M500.6 448.42 C557.06 383.48, 613.51 318.53, 730.22 184.27 M500.6 448.42 C560.27 379.78, 619.94 311.14, 730.22 184.27 M511.23 448.38 C577.7 371.93, 644.16 295.47, 730.36 196.31 M511.23 448.38 C555.63 397.31, 600.03 346.23, 730.36 196.31 M521.86 448.35 C602.11 356.04, 682.36 263.72, 730.49 208.35 M521.86 448.35 C569.19 393.9, 616.52 339.46, 730.49 208.35 M532.49 448.32 C581.68 391.73, 630.87 335.14, 730.62 220.39 M532.49 448.32 C579.01 394.81, 625.52 341.3, 730.62 220.39 M543.12 448.28 C613.96 366.8, 684.79 285.31, 730.76 232.43 M543.12 448.28 C603.9 378.37, 664.67 308.45, 730.76 232.43 M553.75 448.25 C609.33 384.31, 664.91 320.37, 730.23 245.23 M553.75 448.25 C607.22 386.74, 660.68 325.24, 730.23 245.23 M564.38 448.21 C613.65 391.54, 662.91 334.87, 730.37 257.27 M564.38 448.21 C615.37 389.56, 666.35 330.92, 730.37 257.27 M575.01 448.18 C635.24 378.89, 695.47 309.61, 730.5 269.31 M575.01 448.18 C623.86 391.99, 672.7 335.81, 730.5 269.31 M585.64 448.14 C631.07 395.89, 676.49 343.63, 730.63 281.35 M585.64 448.14 C637.74 388.21, 689.84 328.27, 730.63 281.35 M596.28 448.11 C649.81 386.53, 703.34 324.94, 730.77 293.39 M596.28 448.11 C630.14 409.15, 664.01 370.19, 730.77 293.39 M606.91 448.07 C655.77 391.86, 704.64 335.64, 730.24 306.19 M606.91 448.07 C654.98 392.77, 703.05 337.47, 730.24 306.19 M617.54 448.04 C643.25 418.46, 668.97 388.87, 730.38 318.23 M617.54 448.04 C648.7 412.19, 679.86 376.35, 730.38 318.23 M628.17 448 C649.98 422.91, 671.8 397.81, 730.51 330.27 M628.17 448 C662.38 408.64, 696.6 369.28, 730.51 330.27 M638.8 447.97 C657.75 426.17, 676.7 404.37, 730.64 342.31 M638.8 447.97 C659.34 424.33, 679.89 400.7, 730.64 342.31 M649.43 447.94 C668.16 426.38, 686.9 404.83, 730.78 354.35 M649.43 447.94 C670.2 424.04, 690.98 400.14, 730.78 354.35 M660.06 447.9 C674.87 430.85, 689.69 413.81, 730.25 367.15 M660.06 447.9 C681.66 423.05, 703.26 398.2, 730.25 367.15 M670.69 447.87 C683.35 433.3, 696.01 418.73, 730.39 379.19 M670.69 447.87 C685.13 431.25, 699.58 414.63, 730.39 379.19 M681.32 447.83 C699.45 426.97, 717.58 406.12, 730.52 391.23 M681.32 447.83 C692.04 435.49, 702.77 423.16, 730.52 391.23 M691.29 448.55 C703.95 433.99, 716.61 419.43, 730.65 403.27 M691.29 448.55 C703.48 434.53, 715.67 420.51, 730.65 403.27 M701.92 448.52 C712.12 436.79, 722.31 425.06, 730.79 415.31 M701.92 448.52 C708.29 441.19, 714.67 433.85, 730.79 415.31 M712.55 448.48 C716.45 444, 720.35 439.51, 730.26 428.11 M712.55 448.48 C717.87 442.36, 723.2 436.24, 730.26 428.11 M723.18 448.45 C725.26 446.06, 727.34 443.66, 730.4 440.15 M723.18 448.45 C725.05 446.3, 726.92 444.15, 730.4 440.15" stroke="#a5d8ff" stroke-width="1" fill="none"></path><path d="M0 0 C275.98 0, 551.96 0, 729.24 0 M729.24 0 C729.24 105.57, 729.24 211.14, 729.24 445.94 M729.24 445.94 C441.58 445.94, 153.92 445.94, 0 445.94 M0 445.94 C0 295.88, 0 145.82, 0 0" stroke="#1e1e1e" stroke-width="2.5" fill="none" stroke-dasharray="1.5 8"></path></g><g stroke-linecap="round" transform="translate(1271.7403416641316 521.516354728702) rotate(0 127.22329848380525 69.51376102723384)"><path d="M0 0 C99.76 0, 199.52 0, 254.45 0 M0 0 C91.64 0, 183.28 0, 254.45 0 M254.45 0 C254.45 32.08, 254.45 64.17, 254.45 139.03 M254.45 0 C254.45 48.27, 254.45 96.54, 254.45 139.03 M254.45 139.03 C178.47 139.03, 102.49 139.03, 0 139.03 M254.45 139.03 C192.37 139.03, 130.3 139.03, 0 139.03 M0 139.03 C0 85.16, 0 31.29, 0 0 M0 139.03 C0 100.55, 0 62.06, 0 0" stroke="#1e1e1e" stroke-width="4" fill="none"></path></g><g transform="translate(1321.5803967402614 566.1100882178712) rotate(0 72.06666564941406 20.700000000000045)"><text x="72.06666564941406" y="0" font-family="Helvetica, Segoe UI Emoji" font-size="36px" fill="#1e1e1e" text-anchor="middle" style="white-space: pre;" direction="ltr" dominant-baseline="text-before-edge">MangoPI</text></g><g stroke-linecap="round" transform="translate(745.7966025712868 475.6110408427926) rotate(0 127.22329848380527 69.51376102723384)"><path d="M0 0 C90.18 0, 180.35 0, 254.45 0 M0 0 C95.58 0, 191.16 0, 254.45 0 M254.45 0 C254.45 50.88, 254.45 101.76, 254.45 139.03 M254.45 0 C254.45 46.11, 254.45 92.23, 254.45 139.03 M254.45 139.03 C189 139.03, 123.55 139.03, 0 139.03 M254.45 139.03 C187.71 139.03, 120.98 139.03, 0 139.03 M0 139.03 C0 87.25, 0 35.47, 0 0 M0 139.03 C0 93.28, 0 47.54, 0 0" stroke="#1e1e1e" stroke-width="4" fill="none"></path></g><g transform="translate(795.6366576474167 525.4510959189224) rotate(0 77.08333587646484 20.700000000000045)"><text x="77.08333587646484" y="0" font-family="Helvetica, Segoe UI Emoji" font-size="36px" fill="#1e1e1e" text-anchor="middle" style="white-space: pre;" direction="ltr" dominant-baseline="text-before-edge">Arduino 1</text></g><g stroke-linecap="round" transform="translate(37.54318833154559 937.2873404953643) rotate(0 127.22329848380525 69.51376102723407)"><path d="M0 0 C66.14 0, 132.27 0, 254.45 0 M0 0 C78.2 0, 156.4 0, 254.45 0 M254.45 0 C254.45 54.26, 254.45 108.53, 254.45 139.03 M254.45 0 C254.45 35.06, 254.45 70.11, 254.45 139.03 M254.45 139.03 C158.79 139.03, 63.14 139.03, 0 139.03 M254.45 139.03 C192.31 139.03, 130.18 139.03, 0 139.03 M0 139.03 C0 107.02, 0 75.01, 0 0 M0 139.03 C0 84.15, 0 29.28, 0 0" stroke="#1e1e1e" stroke-width="4" fill="none"></path></g><g transform="translate(90.00640420115599 984.5042347780145) rotate(0 77.08333587646484 20.699999999999818)"><text x="77.08333587646484" y="0" font-family="Helvetica, Segoe UI Emoji" font-size="36px" fill="#1e1e1e" text-anchor="middle" style="white-space: pre;" direction="ltr" dominant-baseline="text-before-edge">Arduino 2</text></g><g stroke-linecap="round" transform="translate(1273.0519220608717 215.91812228821982) rotate(0 127.22329848380525 69.51376102723384)"><path d="M0 0 C80.28 0, 160.57 0, 254.45 0 M0 0 C76.13 0, 152.26 0, 254.45 0 M254.45 0 C254.45 36.69, 254.45 73.37, 254.45 139.03 M254.45 0 C254.45 33.3, 254.45 66.59, 254.45 139.03 M254.45 139.03 C196.88 139.03, 139.31 139.03, 0 139.03 M254.45 139.03 C202.85 139.03, 151.25 139.03, 0 139.03 M0 139.03 C0 95.03, 0 51.03, 0 0 M0 139.03 C0 83.65, 0 28.28, 0 0" stroke="#1e1e1e" stroke-width="4" fill="none"></path></g><g transform="translate(1330.7614595174432 244.77289101650786) rotate(0 70.71666717529297 41.40000000000009)"><text x="70.71666717529297" y="0" font-family="Helvetica, Segoe UI Emoji" font-size="36px" fill="#1e1e1e" text-anchor="middle" style="white-space: pre;" direction="ltr" dominant-baseline="text-before-edge">IMX291</text><text x="70.71666717529297" y="41.4" font-family="Helvetica, Segoe UI Emoji" font-size="36px" fill="#1e1e1e" text-anchor="middle" style="white-space: pre;" direction="ltr" dominant-baseline="text-before-edge">Webcam</text></g><g stroke-linecap="round" transform="translate(1915.7263164636006 530.6974175058845) rotate(0 169.1938711794936 64.26743944027271)"><path d="M0 0 C115.05 0, 230.11 0, 338.39 0 M0 0 C93.26 0, 186.51 0, 338.39 0 M338.39 0 C338.39 37.57, 338.39 75.14, 338.39 128.53 M338.39 0 C338.39 43.61, 338.39 87.21, 338.39 128.53 M338.39 128.53 C239.3 128.53, 140.21 128.53, 0 128.53 M338.39 128.53 C233.58 128.53, 128.77 128.53, 0 128.53 M0 128.53 C0 87.18, 0 45.83, 0 0 M0 128.53 C0 97.98, 0 67.42, 0 0" stroke="#1e1e1e" stroke-width="4" fill="none"></path></g><g transform="translate(1965.5663715397304 575.2911509950532) rotate(0 121.0999984741211 20.700000000000045)"><text x="121.0999984741211" y="0" font-family="Helvetica, Segoe UI Emoji" font-size="36px" fill="#1e1e1e" text-anchor="middle" style="white-space: pre;" direction="ltr" dominant-baseline="text-before-edge">Smartphone UI</text></g><g stroke-linecap="round" transform="translate(76.89060023375339 1244.197153332586) rotate(0 162.6359691957923 65.57901983701322)"><path d="M0 0 C116.26 0, 232.51 0, 325.27 0 M0 0 C81.36 0, 162.71 0, 325.27 0 M325.27 0 C325.27 38.6, 325.27 77.2, 325.27 131.16 M325.27 0 C325.27 38.14, 325.27 76.28, 325.27 131.16 M325.27 131.16 C248.55 131.16, 171.84 131.16, 0 131.16 M325.27 131.16 C216.7 131.16, 108.12 131.16, 0 131.16 M0 131.16 C0 97.11, 0 63.07, 0 0 M0 131.16 C0 88.38, 0 45.6, 0 0" stroke="#1e1e1e" stroke-width="4" fill="none"></path></g><g transform="translate(126.73065530988322 1288.7908868217573) rotate(0 111.08333587646484 20.699999999999818)"><text x="111.08333587646484" y="0" font-family="Helvetica, Segoe UI Emoji" font-size="36px" fill="#1e1e1e" text-anchor="middle" style="white-space: pre;" direction="ltr" dominant-baseline="text-before-edge">Altitude motor</text></g><g stroke-linecap="round" transform="translate(440.198370130806 1242.8855729358465) rotate(0 162.6359691957923 65.57901983701322)"><path d="M0 0 C66.83 0, 133.67 0, 325.27 0 M0 0 C111.53 0, 223.07 0, 325.27 0 M325.27 0 C325.27 27.97, 325.27 55.94, 325.27 131.16 M325.27 0 C325.27 26.88, 325.27 53.76, 325.27 131.16 M325.27 131.16 C219.65 131.16, 114.03 131.16, 0 131.16 M325.27 131.16 C209.48 131.16, 93.68 131.16, 0 131.16 M0 131.16 C0 82.4, 0 33.64, 0 0 M0 131.16 C0 82.02, 0 32.88, 0 0" stroke="#1e1e1e" stroke-width="4" fill="none"></path></g><g transform="translate(490.0384252069358 1287.479306425018) rotate(0 116.06666564941406 20.699999999999818)"><text x="116.06666564941406" y="0" font-family="Helvetica, Segoe UI Emoji" font-size="36px" fill="#1e1e1e" text-anchor="middle" style="white-space: pre;" direction="ltr" dominant-baseline="text-before-edge">Azimuth motor</text></g><g stroke-linecap="round" transform="translate(791.7019164571959 1240.2624121423642) rotate(0 144.27384364142858 65.57901983701322)"><path d="M0 0 C100.83 0, 201.67 0, 288.55 0 M0 0 C64.05 0, 128.1 0, 288.55 0 M288.55 0 C288.55 40.28, 288.55 80.57, 288.55 131.16 M288.55 0 C288.55 51.86, 288.55 103.73, 288.55 131.16 M288.55 131.16 C208.21 131.16, 127.87 131.16, 0 131.16 M288.55 131.16 C219.66 131.16, 150.77 131.16, 0 131.16 M0 131.16 C0 80.9, 0 30.64, 0 0 M0 131.16 C0 99.56, 0 67.95, 0 0" stroke="#1e1e1e" stroke-width="4" fill="none"></path></g><g transform="translate(841.5419715333257 1284.8561456315356) rotate(0 100.06666564941406 20.699999999999818)"><text x="100.06666564941406" y="0" font-family="Helvetica, Segoe UI Emoji" font-size="36px" fill="#1e1e1e" text-anchor="middle" style="white-space: pre;" direction="ltr" dominant-baseline="text-before-edge">Focus motor</text></g><g stroke-linecap="round" transform="translate(312.9750716470005 478.23420163627316) rotate(0 149.52016522838971 61.644278646792145)"><path d="M0 0 C81.15 0, 162.29 0, 299.04 0 M0 0 C74.46 0, 148.92 0, 299.04 0 M299.04 0 C299.04 32.14, 299.04 64.28, 299.04 123.29 M299.04 0 C299.04 33.03, 299.04 66.07, 299.04 123.29 M299.04 123.29 C227.42 123.29, 155.8 123.29, 0 123.29 M299.04 123.29 C209.93 123.29, 120.82 123.29, 0 123.29 M0 123.29 C0 89.87, 0 56.46, 0 0 M0 123.29 C0 83.73, 0 44.17, 0 0" stroke="#1e1e1e" stroke-width="4" fill="none"></path></g><g transform="translate(362.81512672313033 522.827935125441) rotate(0 93.46666717529297 20.700000000000045)"><text x="93.46666717529297" y="0" font-family="Helvetica, Segoe UI Emoji" font-size="36px" fill="#1e1e1e" text-anchor="middle" style="white-space: pre;" direction="ltr" dominant-baseline="text-before-edge">1.3" Screen</text></g><g stroke-linecap="round" transform="translate(261.8234361741306 648.7396532125063) rotate(0 178.37493395667548 73.44850221745469)"><path d="M0 0 C132.84 0, 265.68 0, 356.75 0 M0 0 C135.3 0, 270.6 0, 356.75 0 M356.75 0 C356.75 45.52, 356.75 91.05, 356.75 146.9 M356.75 0 C356.75 49, 356.75 98.01, 356.75 146.9 M356.75 146.9 C254.97 146.9, 153.18 146.9, 0 146.9 M356.75 146.9 C236.94 146.9, 117.13 146.9, 0 146.9 M0 146.9 C0 98.97, 0 51.05, 0 0 M0 146.9 C0 96.62, 0 46.34, 0 0" stroke="#1e1e1e" stroke-width="4" fill="none"></path></g><g transform="translate(285.43188331545525 680.2175827342712) rotate(0 145.10000610351562 41.40000000000009)"><text x="145.10000610351562" y="0" font-family="Helvetica, Segoe UI Emoji" font-size="36px" fill="#1e1e1e" text-anchor="middle" style="white-space: pre;" direction="ltr" dominant-baseline="text-before-edge">Pushbuttons</text><text x="145.10000610351562" y="41.4" font-family="Helvetica, Segoe UI Emoji" font-size="36px" fill="#1e1e1e" text-anchor="middle" style="white-space: pre;" direction="ltr" dominant-baseline="text-before-edge">(physical controls)</text></g><g stroke-linecap="round"><g transform="translate(1408.144702925119 358.8803855329097) rotate(0 0 81.31798459789616)"><path d="M0 0 C0 58.85, 0 117.71, 0 162.64 M0 0 C0 40.54, 0 81.09, 0 162.64" stroke="#1e1e1e" stroke-width="4" fill="none"></path></g></g><mask></mask><g transform="translate(1440.0579195576688 431.03624457644173) rotate(0 20.549999237060547 11.5)"><text x="20.549999237060547" y="0" font-family="Helvetica, Segoe UI Emoji" font-size="20px" fill="#1e1e1e" text-anchor="middle" style="white-space: pre;" direction="ltr" dominant-baseline="text-before-edge">USB</text></g><g stroke-linecap="round"><g transform="translate(1402.7605068925213 663.1670375766503) rotate(0 0 136.4043612609869)"><path d="M0 0 C0 79.29, 0 158.58, 0 272.81 M0 0 C0 67.21, 0 134.43, 0 272.81" stroke="#1e1e1e" stroke-width="4" fill="none"></path></g></g><mask></mask><g transform="translate(1192.5829833121745 787.7861124897936) rotate(0 71.1500015258789 11.5)"><text x="71.1500015258789" y="0" font-family="Helvetica, Segoe UI Emoji" font-size="20px" fill="#1e1e1e" text-anchor="middle" style="white-space: pre;" direction="ltr" dominant-baseline="text-before-edge">Serial over USB</text></g><g transform="translate(1082.5481044316289 528.3784802830669) rotate(0 71.1500015258789 11.5)"><text x="71.1500015258789" y="0" font-family="Helvetica, Segoe UI Emoji" font-size="20px" fill="#1e1e1e" text-anchor="middle" style="white-space: pre;" direction="ltr" dominant-baseline="text-before-edge">Serial over USB</text></g><g transform="translate(657.5430139567488 489.03106838085887) rotate(0 16.116666793823242 11.5)"><text x="16.116666793823242" y="0" font-family="Helvetica, Segoe UI Emoji" font-size="20px" fill="#1e1e1e" text-anchor="middle" style="white-space: pre;" direction="ltr" dominant-baseline="text-before-edge">SPI</text></g><g stroke-linecap="round"><g transform="translate(613.32698250052 534.6321586961044) rotate(0 66.89060023375339 0)"><path d="M0 0 C48.87 0, 97.74 0, 133.78 0 M0 0 C42.45 0, 84.89 0, 133.78 0" stroke="#1e1e1e" stroke-width="4" fill="none"></path></g></g><mask></mask><g stroke-linecap="round"><g transform="translate(623.819625674442 733.9923790006237) rotate(0 127.22329848380548 -60.332698250051635)"><path d="M0 0 C91.3 0, 182.59 0, 254.45 0 M0 0 C99.54 0, 199.08 0, 254.45 0 M254.45 0 C254.45 -44.12, 254.45 -88.24, 254.45 -120.67 M254.45 0 C254.45 -24.61, 254.45 -49.22, 254.45 -120.67" stroke="#1e1e1e" stroke-width="4" fill="none"></path></g></g><mask></mask><g transform="translate(666.8025525577295 739.2765750332214) rotate(0 64.56666564941406 22.999999999999773)"><text x="64.56666564941406" y="0" font-family="Helvetica, Segoe UI Emoji" font-size="20px" fill="#1e1e1e" text-anchor="middle" style="white-space: pre;" direction="ltr" dominant-baseline="text-before-edge">Digital inputs,</text><text x="64.56666564941406" y="23" font-family="Helvetica, Segoe UI Emoji" font-size="20px" fill="#1e1e1e" text-anchor="middle" style="white-space: pre;" direction="ltr" dominant-baseline="text-before-edge">one per button</text></g><g stroke-linecap="round" transform="translate(122.79591411966283 1156.3212667509888) rotate(0 104.92643173922085 32.789509918506155)"><path d="M0 0 C47.12 0, 94.23 0, 209.85 0 M0 0 C46.2 0, 92.41 0, 209.85 0 M209.85 0 C209.85 24.53, 209.85 49.06, 209.85 65.58 M209.85 0 C209.85 14.26, 209.85 28.52, 209.85 65.58 M209.85 65.58 C162.41 65.58, 114.98 65.58, 0 65.58 M209.85 65.58 C132.01 65.58, 54.17 65.58, 0 65.58 M0 65.58 C0 47.97, 0 30.37, 0 0 M0 65.58 C0 48.24, 0 30.9, 0 0" stroke="#1e1e1e" stroke-width="4" fill="none"></path></g><g transform="translate(137.62234738476263 1168.4107766694951) rotate(0 90.0999984741211 20.699999999999818)"><text x="90.0999984741211" y="0" font-family="Helvetica, Segoe UI Emoji" font-size="36px" fill="#1e1e1e" text-anchor="middle" style="white-space: pre;" direction="ltr" dominant-baseline="text-before-edge">4988 driver</text></g><g stroke-linecap="round" transform="translate(482.1689428264939 1157.632847147729) rotate(0 104.92643173922085 32.789509918506155)"><path d="M0 0 C49.53 0, 99.05 0, 209.85 0 M0 0 C76.14 0, 152.28 0, 209.85 0 M209.85 0 C209.85 17.58, 209.85 35.17, 209.85 65.58 M209.85 0 C209.85 21.09, 209.85 42.18, 209.85 65.58 M209.85 65.58 C134.83 65.58, 59.81 65.58, 0 65.58 M209.85 65.58 C140.21 65.58, 70.57 65.58, 0 65.58 M0 65.58 C0 41.63, 0 17.68, 0 0 M0 65.58 C0 50.87, 0 36.17, 0 0" stroke="#1e1e1e" stroke-width="4" fill="none"></path></g><g transform="translate(496.9953760915937 1169.7223570662354) rotate(0 90.0999984741211 20.699999999999818)"><text x="90.0999984741211" y="0" font-family="Helvetica, Segoe UI Emoji" font-size="36px" fill="#1e1e1e" text-anchor="middle" style="white-space: pre;" direction="ltr" dominant-baseline="text-before-edge">4988 driver</text></g><g stroke-linecap="round" transform="translate(828.4261675659234 1155.0096863542476) rotate(0 104.92643173922085 32.789509918506155)"><path d="M0 0 C49.54 0, 99.09 0, 209.85 0 M0 0 C78.19 0, 156.37 0, 209.85 0 M209.85 0 C209.85 21.5, 209.85 43, 209.85 65.58 M209.85 0 C209.85 16.2, 209.85 32.41, 209.85 65.58 M209.85 65.58 C129.69 65.58, 49.52 65.58, 0 65.58 M209.85 65.58 C141.93 65.58, 74.02 65.58, 0 65.58 M0 65.58 C0 43.49, 0 21.4, 0 0 M0 65.58 C0 41.01, 0 16.44, 0 0" stroke="#1e1e1e" stroke-width="4" fill="none"></path></g><g transform="translate(843.2526008310231 1167.099196272754) rotate(0 90.0999984741211 20.699999999999818)"><text x="90.0999984741211" y="0" font-family="Helvetica, Segoe UI Emoji" font-size="36px" fill="#1e1e1e" text-anchor="middle" style="white-space: pre;" direction="ltr" dominant-baseline="text-before-edge">4988 driver</text></g><g stroke-linecap="round"><g transform="translate(1528.8100994252227 584.4722137722347) rotate(0 136.40436126098723 1.3115803967402826)"><path d="M0 0 C56.86 0.55, 113.72 1.09, 272.81 2.62" stroke="#1e1e1e" stroke-width="4.5" fill="none" stroke-dasharray="8 12"></path></g></g><mask></mask><g transform="translate(1621.5729078275342 533.3395155221829) rotate(0 67.25 11.5)"><text x="67.25" y="0" font-family="Helvetica, Segoe UI Emoji" font-size="20px" fill="#1e1e1e" text-anchor="middle" style="white-space: pre;" direction="ltr" dominant-baseline="text-before-edge">Wifi (AP Mode)</text></g><g stroke-linecap="round"><g transform="translate(211.9833810980001 1077.6264429465728) rotate(0 0 38.03583150546774)"><path d="M0 0 C0 19.01, 0 38.02, 0 76.07 M0 0 C0 19.9, 0 39.8, 0 76.07" stroke="#1e1e1e" stroke-width="4" fill="none"></path></g></g><mask></mask><g stroke-linecap="round"><g transform="translate(295.92452648937683 1009.4242623160799) rotate(0 145.58542403816898 74.76008261419474)"><path d="M0 0 C67.53 0.61, 135.05 1.22, 291.17 2.62 M0 0 C95.66 0.86, 191.32 1.72, 291.17 2.62 M291.17 2.62 C291.17 39.99, 291.17 77.35, 291.17 149.52 M291.17 2.62 C291.17 36.72, 291.17 70.83, 291.17 149.52" stroke="#1e1e1e" stroke-width="4" fill="none"></path></g></g><mask></mask><g stroke-linecap="round"><g transform="translate(954.337885652988 1153.6981059575082) rotate(0 -182.30967514689632 -72.13692182071418)"><path d="M0 0 C-0.88 -48.44, -1.76 -96.89, -2.62 -144.27 M0 0 C-0.57 -31.11, -1.13 -62.23, -2.62 -144.27 M-2.62 -144.27 C-136.71 -144.27, -270.79 -144.27, -364.62 -144.27 M-2.62 -144.27 C-130.21 -144.27, -257.8 -144.27, -364.62 -144.27" stroke="#1e1e1e" stroke-width="4" fill="none"></path></g></g><mask></mask><g stroke-linecap="round"><g transform="translate(232.96866744584418 1227.1466081749631) rotate(0 1.3115803967402826 9.181062777181978)"><path d="M0 0 C0.72 5.04, 1.44 10.07, 2.62 18.36 M0 0 C0.72 5.01, 1.43 10.03, 2.62 18.36" stroke="#1e1e1e" stroke-width="4" fill="none"></path></g></g><mask></mask><g stroke-linecap="round"><g transform="translate(600.2111785331176 1221.900286588002) rotate(0 0 10.49264317392226)"><path d="M0 0 C0 7.43, 0 14.85, 0 20.99 M0 0 C0 8.02, 0 16.04, 0 20.99" stroke="#1e1e1e" stroke-width="4" fill="none"></path></g></g><mask></mask><g stroke-linecap="round"><g transform="translate(964.8305288269103 1221.900286588002) rotate(0 0 7.869482380441696)"><path d="M0 0 C0 4.54, 0 9.08, 0 15.74 M0 0 C0 4.8, 0 9.6, 0 15.74" stroke="#1e1e1e" stroke-width="4" fill="none"></path></g></g><mask></mask><g transform="translate(604.8531856065063 1038.8874781856912) rotate(0 66.18333435058594 23)"><text x="66.18333435058594" y="0" font-family="Helvetica, Segoe UI Emoji" font-size="20px" fill="#1e1e1e" text-anchor="middle" style="white-space: pre;" direction="ltr" dominant-baseline="text-before-edge">Digital outputs,</text><text x="66.18333435058594" y="23" font-family="Helvetica, Segoe UI Emoji" font-size="20px" fill="#1e1e1e" text-anchor="middle" style="white-space: pre;" direction="ltr" dominant-baseline="text-before-edge">two per motor</text></g><g transform="translate(227.11803134531033 1093.973854848784) rotate(0 66.18333435058594 23)"><text x="66.18333435058594" y="0" font-family="Helvetica, Segoe UI Emoji" font-size="20px" fill="#1e1e1e" text-anchor="middle" style="white-space: pre;" direction="ltr" dominant-baseline="text-before-edge">Digital outputs,</text><text x="66.18333435058594" y="23" font-family="Helvetica, Segoe UI Emoji" font-size="20px" fill="#1e1e1e" text-anchor="middle" style="white-space: pre;" direction="ltr" dominant-baseline="text-before-edge">two per motor</text></g><g transform="translate(974.7188574872594 1038.8874781856894) rotate(0 66.18333435058594 23)"><text x="66.18333435058594" y="0" font-family="Helvetica, Segoe UI Emoji" font-size="20px" fill="#1e1e1e" text-anchor="middle" style="white-space: pre;" direction="ltr" dominant-baseline="text-before-edge">Digital outputs,</text><text x="66.18333435058594" y="23" font-family="Helvetica, Segoe UI Emoji" font-size="20px" fill="#1e1e1e" text-anchor="middle" style="white-space: pre;" direction="ltr" dominant-baseline="text-before-edge">two per motor</text></g><g transform="translate(1961.9340365614796 359.52670711987093) rotate(0 115.11666870117188 20.700000000000045)"><text x="115.11666870117188" y="0" font-family="Helvetica, Segoe UI Emoji" font-size="36px" fill="#1e1e1e" text-anchor="middle" style="white-space: pre;" direction="ltr" dominant-baseline="text-before-edge">Liveview-Land</text></g><g transform="translate(480.91290494889836 931.0147248595085) rotate(0 93.06666564941406 20.699999999999818)"><text x="93.06666564941406" y="0" font-family="Helvetica, Segoe UI Emoji" font-size="36px" fill="#1e1e1e" text-anchor="middle" style="white-space: pre;" direction="ltr" dominant-baseline="text-before-edge">Movements</text></g><g transform="translate(289.78928994070475 369.6583150546753) rotate(0 187.13333129882812 41.40000000000009)"><text x="187.13333129882812" y="0" font-family="Helvetica, Segoe UI Emoji" font-size="36px" fill="#1e1e1e" text-anchor="middle" style="white-space: pre;" direction="ltr" dominant-baseline="text-before-edge">Physical remote control</text><text x="187.13333129882812" y="41.4" font-family="Helvetica, Segoe UI Emoji" font-size="36px" fill="#1e1e1e" text-anchor="middle" style="white-space: pre;" direction="ltr" dominant-baseline="text-before-edge">and display</text></g><g stroke-linecap="round"><g transform="translate(1581.273315294833 10) rotate(0 1.311580396740169 814.4914263757023)"><path d="M0 0 C0 290.5, 0 581, 0 836.79 M0 0 C0 297.91, 0 595.82, 0 836.79 M0 836.79 C0.64 1015.51, 1.27 1194.24, 2.62 1573.9 M0 836.79 C0.7 1033.74, 1.4 1230.7, 2.62 1573.9 M2.62 1573.9 C1.93 1588.51, 1.23 1603.13, 0 1628.98 M2.62 1573.9 C1.75 1592.19, 0.88 1610.48, 0 1628.98" stroke="#1e1e1e" stroke-width="4" fill="none"></path></g></g><mask></mask><g transform="translate(325.1464181335472 225.09918506540316) rotate(0 94.06666564941406 20.700000000000045)"><text x="94.06666564941406" y="0" font-family="Helvetica, Segoe UI Emoji" font-size="36px" fill="#1e1e1e" text-anchor="middle" style="white-space: pre;" direction="ltr" dominant-baseline="text-before-edge">Nerves App</text></g><g transform="translate(1647.0556076034657 212.2686674458455) rotate(0 102.0999984741211 20.700000000000045)"><text x="102.0999984741211" y="0" font-family="Helvetica, Segoe UI Emoji" font-size="36px" fill="#1e1e1e" text-anchor="middle" style="white-space: pre;" direction="ltr" dominant-baseline="text-before-edge">Phoenix App</text></g><g stroke-linecap="round"><g transform="translate(1276.9866632510923 560.86376663091) rotate(0 -124.60013769032469 0)"><path d="M0 0 C-92.26 0, -184.52 0, -249.2 0 M0 0 C-80.28 0, -160.55 0, -249.2 0" stroke="#1e1e1e" stroke-width="4" fill="none"></path></g></g><mask></mask><g stroke-linecap="round"><g transform="translate(1405.5215421316377 935.975760098625) rotate(0 -127.22329848380537 0)"><path d="M0 0 C-80.47 0, -160.94 0, -254.45 0 M0 0 C-60.26 0, -120.52 0, -254.45 0" stroke="#1e1e1e" stroke-width="4" fill="none"></path></g></g><mask></mask></svg>